SplineFontDB: 3.0
FontName: Questrial-Regular
FullName: Questrial
FamilyName: Questrial
Weight: Book
Copyright: Copyright (c) 2011, Admix Designs (http://www.admixdesigns.com/) with Reserved Font Name Questrial.
Version: 1.002
ItalicAngle: 0
UnderlinePosition: -50
UnderlineWidth: 50
Ascent: 800
Descent: 200
sfntRevision: 0x00010083
LayerCount: 2
Layer: 0 1 "Back"  1
Layer: 1 1 "Fore"  0
XUID: [1021 288 713564382 16180]
FSType: 0
OS2Version: 3
OS2_WeightWidthSlopeOnly: 0
OS2_UseTypoMetrics: 1
CreationTime: 1311533520
ModificationTime: 1312579210
PfmFamily: 17
TTFWeight: 400
TTFWidth: 5
LineGap: 0
VLineGap: 0
Panose: 2 0 0 0 0 0 0 0 0 0
OS2TypoAscent: 20
OS2TypoAOffset: 1
OS2TypoDescent: -10
OS2TypoDOffset: 1
OS2TypoLinegap: 0
OS2WinAscent: 0
OS2WinAOffset: 1
OS2WinDescent: 0
OS2WinDOffset: 1
HheadAscent: 0
HheadAOffset: 1
HheadDescent: 0
HheadDOffset: 1
OS2SubXSize: 700
OS2SubYSize: 650
OS2SubXOff: 0
OS2SubYOff: 140
OS2SupXSize: 700
OS2SupYSize: 650
OS2SupXOff: 0
OS2SupYOff: 477
OS2StrikeYSize: 50
OS2StrikeYPos: 250
OS2Vendor: 'PYRS'
OS2CodePages: 00000001.00000000
OS2UnicodeRanges: 00000001.00000000.00000000.00000000
Lookup: 258 0 0 "'kern' Horizontal Kerning in Latin lookup 0"  {"'kern' Horizontal Kerning in Latin lookup 0 subtable"  } ['kern' ('DFLT' <'dflt' > 'latn' <'dflt' > ) ]
DEI: 91125
TtTable: prep
PUSHW_1
 511
SCANCTRL
PUSHB_1
 4
SCANTYPE
EndTTInstrs
ShortTable: maxp 16
  1
  0
  247
  72
  7
  52
  4
  2
  0
  1
  1
  0
  64
  0
  3
  1
EndShort
LangName: 1033 "" "" "" "1.000;Questrial" "" "Version 1.002" "" "Questrial is a trademark of Admix Designs (www.admixdesigns.com)" "Joe Prince" "Joe Prince" "Copyright (c) 2011, Admix Designs (http://www.admixdesigns.com/) with Reserved Font Name Questrial." "http://www.admixdesigns.com/" "http://www.admixdesigns.com/" "This Font Software is licensed under the SIL Open Font License, Version 1.1. This license is available with a FAQ at: http://scripts.sil.org/OFL" "http://scripts.sil.org/OFL" "" "" "" "Questrial" 

StartChar: .notdef
Encoding: 65536 -1 0
Width: 524
Flags: W
LayerCount: 2
Fore
SplineSet
33 662 m 1,0,-1
 493 662 l 1,1,-1
 493 0 l 1,2,-1
 33 0 l 1,3,-1
 33 662 l 1,0,-1
235 331 m 1,4,-1
 78 558 l 1,5,-1
 78 104 l 1,6,-1
 235 331 l 1,4,-1
91 617 m 1,7,-1
 263 370 l 1,8,-1
 434 617 l 1,9,-1
 91 617 l 1,7,-1
263 292 m 1,10,-1
 91 45 l 1,11,-1
 434 45 l 1,12,-1
 263 292 l 1,10,-1
290 331 m 1,13,-1
 448 104 l 1,14,-1
 448 558 l 1,15,-1
 290 331 l 1,13,-1
EndSplineSet
EndChar

StartChar: exclam
Encoding: 33 33 4
Width: 221
Flags: W
LayerCount: 2
Fore
SplineSet
159 102 m 1,0,-1
 159 0 l 1,1,-1
 62 0 l 1,2,-1
 62 102 l 1,3,-1
 159 102 l 1,0,-1
83 183 m 1,4,-1
 64 662 l 1,5,-1
 157 662 l 1,6,-1
 138 183 l 1,7,-1
 83 183 l 1,4,-1
EndSplineSet
EndChar

StartChar: quotedbl
Encoding: 34 34 5
Width: 317
Flags: W
LayerCount: 2
Fore
SplineSet
117 443 m 1,0,-1
 66 443 l 1,1,-1
 47 662 l 1,2,-1
 136 662 l 1,3,-1
 117 443 l 1,0,-1
251 443 m 1,4,-1
 200 443 l 1,5,-1
 181 662 l 1,6,-1
 270 662 l 1,7,-1
 251 443 l 1,4,-1
EndSplineSet
EndChar

StartChar: numbersign
Encoding: 35 35 6
Width: 581
Flags: W
LayerCount: 2
Fore
SplineSet
186 442 m 1,0,-1
 207 585 l 1,1,-1
 272 585 l 1,2,-1
 251 442 l 1,3,-1
 367 442 l 1,4,-1
 388 585 l 1,5,-1
 453 585 l 1,6,-1
 432 442 l 1,7,-1
 536 442 l 1,8,-1
 536 377 l 1,9,-1
 423 377 l 1,10,-1
 403 233 l 1,11,-1
 506 233 l 1,12,-1
 506 168 l 1,13,-1
 394 168 l 1,14,-1
 374 25 l 1,15,-1
 309 25 l 1,16,-1
 329 168 l 1,17,-1
 213 168 l 1,18,-1
 193 25 l 1,19,-1
 128 25 l 1,20,-1
 148 168 l 1,21,-1
 45 168 l 1,22,-1
 45 233 l 1,23,-1
 157 233 l 1,24,-1
 177 377 l 1,25,-1
 75 377 l 1,26,-1
 75 442 l 1,27,-1
 186 442 l 1,0,-1
222 233 m 1,28,-1
 338 233 l 1,29,-1
 358 377 l 1,30,-1
 242 377 l 1,31,-1
 222 233 l 1,28,-1
EndSplineSet
EndChar

StartChar: dollar
Encoding: 36 36 7
Width: 636
Flags: W
LayerCount: 2
Fore
SplineSet
523 42.5 m 128,-1,1
 455 -6 455 -6 335 -8 c 1,2,-1
 335 -107 l 1,3,-1
 298 -107 l 1,4,-1
 298 -7 l 1,5,6
 114 2 114 2 62 120 c 0,7,8
 46 156 46 156 43 198 c 1,9,-1
 121 198 l 1,10,11
 123 138 123 138 174 102 c 0,12,13
 219 70 219 70 298 64 c 1,14,-1
 298 307 l 1,15,16
 188 332 188 332 146 358 c 128,-1,17
 104 384 104 384 83.5 413.5 c 128,-1,18
 63 443 63 443 63 487 c 0,19,20
 63 566 63 566 121.5 616.5 c 128,-1,21
 180 667 180 667 298 670 c 1,22,-1
 298 746 l 1,23,-1
 335 746 l 1,24,-1
 335 669 l 1,25,26
 450 663 450 663 512 608 c 0,27,28
 570 556 570 556 574 481 c 1,29,-1
 497 481 l 1,30,31
 491 528 491 528 452.5 561 c 128,-1,32
 414 594 414 594 335 599 c 1,33,-1
 335 371 l 1,34,35
 381 360 381 360 426.5 347 c 128,-1,36
 472 334 472 334 508 313 c 0,37,38
 591 266 591 266 591 178.5 c 128,-1,0
 591 91 591 91 523 42.5 c 128,-1,1
136 484 m 0,39,40
 136 465 136 465 149 448 c 128,-1,41
 162 431 162 431 184 419 c 0,42,43
 222 399 222 399 298 380 c 1,44,-1
 298 600 l 1,45,46
 206 596 206 596 166 558 c 1,47,48
 136 531 136 531 136 484 c 0,39,40
335 63 m 1,49,50
 419 63 419 63 467.5 92 c 128,-1,51
 516 121 516 121 516 180 c 0,52,53
 516 247 516 247 404 280 c 0,54,55
 371 289 371 289 335 298 c 1,56,-1
 335 63 l 1,49,50
EndSplineSet
EndChar

StartChar: percent
Encoding: 37 37 8
Width: 845
Flags: W
LayerCount: 2
Fore
SplineSet
342 470 m 128,-1,1
 342 384 342 384 301.5 336 c 128,-1,2
 261 288 261 288 191.5 288 c 128,-1,3
 122 288 122 288 82 336 c 128,-1,4
 42 384 42 384 42 477.5 c 128,-1,5
 42 571 42 571 82 619 c 128,-1,6
 122 667 122 667 195 666 c 128,-1,7
 268 665 268 665 305 610.5 c 128,-1,0
 342 556 342 556 342 470 c 128,-1,1
192 345 m 1,8,9
 259 348 259 348 276 431 c 0,10,11
 280 454 280 454 280 477 c 0,12,13
 280 543 280 543 256.5 576 c 128,-1,14
 233 609 233 609 191.5 609 c 128,-1,15
 150 609 150 609 126.5 576 c 128,-1,16
 103 543 103 543 103 477 c 256,17,18
 103 411 103 411 126.5 378 c 128,-1,19
 150 345 150 345 192 345 c 1,8,9
803 174 m 128,-1,21
 803 88 803 88 762.5 40 c 128,-1,22
 722 -8 722 -8 652.5 -8 c 128,-1,23
 583 -8 583 -8 543 40 c 128,-1,24
 503 88 503 88 503 181.5 c 128,-1,25
 503 275 503 275 543 323 c 128,-1,26
 583 371 583 371 656 370 c 128,-1,27
 729 369 729 369 766 314.5 c 128,-1,20
 803 260 803 260 803 174 c 128,-1,21
653 49 m 1,28,29
 720 52 720 52 736 135 c 0,30,31
 741 158 741 158 741 181 c 0,32,33
 741 247 741 247 717.5 280 c 128,-1,34
 694 313 694 313 652.5 313 c 128,-1,35
 611 313 611 313 587.5 280 c 128,-1,36
 564 247 564 247 564 181 c 256,37,38
 564 115 564 115 587.5 82 c 128,-1,39
 611 49 611 49 653 49 c 1,28,29
683 670 m 1,40,-1
 224 -12 l 1,41,-1
 161 -12 l 1,42,-1
 620 670 l 1,43,-1
 683 670 l 1,40,-1
EndSplineSet
EndChar

StartChar: ampersand
Encoding: 38 38 9
Width: 580
Flags: W
LayerCount: 2
Fore
SplineSet
184 656 m 128,-1,1
 225 670 225 670 277.5 670 c 128,-1,2
 330 670 330 670 367 658 c 128,-1,3
 404 646 404 646 430 626 c 0,4,5
 477 590 477 590 489 532 c 1,6,-1
 410 532 l 1,7,8
 402 556 402 556 369 579 c 128,-1,9
 336 602 336 602 288 602 c 128,-1,10
 240 602 240 602 213 593 c 128,-1,11
 186 584 186 584 168 568 c 0,12,13
 134 538 134 538 134 488 c 0,14,15
 134 434 134 434 173 404 c 0,16,17
 208 378 208 378 264 378 c 2,18,-1
 425 378 l 1,19,-1
 425 422 l 1,20,-1
 495 422 l 1,21,-1
 495 378 l 1,22,-1
 560 378 l 1,23,-1
 560 311 l 1,24,-1
 495 311 l 1,25,-1
 495 184 l 2,26,27
 495 98 495 98 435 46 c 0,28,29
 374 -8 374 -8 269 -8 c 0,30,31
 174 -8 174 -8 106 47 c 0,32,33
 37 103 37 103 37 190 c 0,34,35
 37 244 37 244 69 286 c 128,-1,36
 101 328 101 328 159 350 c 1,37,38
 122 361 122 361 92 400 c 0,39,40
 59 444 59 444 59 486 c 128,-1,41
 59 528 59 528 73 561 c 128,-1,42
 87 594 87 594 115 618 c 128,-1,0
 143 642 143 642 184 656 c 128,-1,1
255 311 m 2,43,44
 194 311 194 311 152 274 c 0,45,46
 112 240 112 240 112 188 c 128,-1,47
 112 136 112 136 156 98 c 0,48,49
 200 59 200 59 269 59 c 0,50,51
 343 59 343 59 386 96 c 1,52,53
 425 128 425 128 425 178 c 2,54,-1
 425 311 l 1,55,-1
 255 311 l 2,43,44
EndSplineSet
EndChar

StartChar: quotesingle
Encoding: 39 39 10
Width: 183
Flags: W
LayerCount: 2
Fore
SplineSet
117 443 m 1,0,-1
 66 443 l 1,1,-1
 47 662 l 1,2,-1
 136 662 l 1,3,-1
 117 443 l 1,0,-1
EndSplineSet
EndChar

StartChar: parenleft
Encoding: 40 40 11
Width: 245
Flags: W
LayerCount: 2
Fore
SplineSet
231 700 m 1,0,1
 111 506 111 506 111 280 c 128,-1,2
 111 54 111 54 231 -138 c 1,3,-1
 163 -138 l 1,4,5
 35 61 35 61 35 281 c 128,-1,6
 35 501 35 501 163 700 c 1,7,-1
 231 700 l 1,0,1
EndSplineSet
EndChar

StartChar: parenright
Encoding: 41 41 12
Width: 245
Flags: W
LayerCount: 2
Fore
SplineSet
14 -138 m 1,0,1
 134 54 134 54 134 280 c 128,-1,2
 134 506 134 506 14 700 c 1,3,-1
 82 700 l 1,4,5
 210 501 210 501 210 281 c 128,-1,6
 210 61 210 61 82 -138 c 1,7,-1
 14 -138 l 1,0,1
EndSplineSet
EndChar

StartChar: asterisk
Encoding: 42 42 13
Width: 373
Flags: W
LayerCount: 2
Fore
SplineSet
218 516 m 1,0,-1
 292 434 l 1,1,-1
 241 397 l 1,2,-1
 187 492 l 1,3,-1
 132 397 l 1,4,-1
 81 434 l 1,5,-1
 155 515 l 1,6,-1
 48 538 l 1,7,-1
 67 598 l 1,8,-1
 167 553 l 1,9,-1
 155 662 l 1,10,-1
 218 662 l 1,11,-1
 206 553 l 1,12,-1
 306 598 l 1,13,-1
 325 538 l 1,14,-1
 218 516 l 1,0,-1
EndSplineSet
EndChar

StartChar: plus
Encoding: 43 43 14
Width: 550
Flags: W
LayerCount: 2
Fore
SplineSet
500 203 m 1,0,-1
 307 203 l 1,1,-1
 307 0 l 1,2,-1
 242 0 l 1,3,-1
 242 203 l 1,4,-1
 50 203 l 1,5,-1
 50 268 l 1,6,-1
 242 268 l 1,7,-1
 242 471 l 1,8,-1
 307 471 l 1,9,-1
 307 268 l 1,10,-1
 500 268 l 1,11,-1
 500 203 l 1,0,-1
EndSplineSet
EndChar

StartChar: comma
Encoding: 44 44 15
Width: 220
Flags: W
LayerCount: 2
Fore
SplineSet
69 80 m 1,0,-1
 167 80 l 1,1,-1
 79 -133 l 1,2,-1
 11 -133 l 1,3,-1
 69 80 l 1,0,-1
EndSplineSet
EndChar

StartChar: hyphen
Encoding: 45 45 16
Width: 356
Flags: W
LayerCount: 2
Fore
SplineSet
53 332 m 1,0,-1
 303 332 l 1,1,-1
 303 259 l 1,2,-1
 53 259 l 1,3,-1
 53 332 l 1,0,-1
EndSplineSet
EndChar

StartChar: period
Encoding: 46 46 17
Width: 203
Flags: W
LayerCount: 2
Fore
SplineSet
150 102 m 1,0,-1
 150 0 l 1,1,-1
 53 0 l 1,2,-1
 53 102 l 1,3,-1
 150 102 l 1,0,-1
EndSplineSet
EndChar

StartChar: slash
Encoding: 47 47 18
Width: 371
Flags: W
LayerCount: 2
Fore
SplineSet
335 680 m 1,0,-1
 106 -32 l 1,1,-1
 36 -32 l 1,2,-1
 265 680 l 1,3,-1
 335 680 l 1,0,-1
EndSplineSet
EndChar

StartChar: zero
Encoding: 48 48 19
Width: 550
Flags: W
LayerCount: 2
Fore
SplineSet
43 331 m 256,0,1
 43 670 43 670 275 670 c 1,2,3
 401 668 401 668 460 564 c 0,4,5
 507 480 507 480 507 331 c 0,6,7
 507 -8 507 -8 275 -8 c 256,8,9
 43 -8 43 -8 43 331 c 256,0,1
275 65 m 1,10,11
 407 68 407 68 426 238 c 0,12,13
 432 285 432 285 432 331 c 0,14,15
 432 465 432 465 395 531 c 128,-1,16
 358 597 358 597 275 597 c 256,17,18
 192 597 192 597 155 531 c 128,-1,19
 118 465 118 465 118 331 c 256,20,21
 118 197 118 197 155 131 c 128,-1,22
 192 65 192 65 275 65 c 1,10,11
EndSplineSet
EndChar

StartChar: one
Encoding: 49 49 20
Width: 550
Flags: W
LayerCount: 2
Fore
SplineSet
350 662 m 1,0,-1
 350 0 l 1,1,-1
 275 0 l 1,2,-1
 275 590 l 1,3,-1
 135 590 l 1,4,-1
 135 662 l 1,5,-1
 350 662 l 1,0,-1
EndSplineSet
EndChar

StartChar: two
Encoding: 50 50 21
Width: 550
Flags: W
LayerCount: 2
Fore
SplineSet
499 472 m 0,0,1
 499 429 499 429 473.5 389 c 128,-1,2
 448 349 448 349 409 314 c 128,-1,3
 370 279 370 279 324.5 248 c 128,-1,4
 279 217 279 217 239 187.5 c 128,-1,5
 199 158 199 158 171.5 129.5 c 128,-1,6
 144 101 144 101 141 72 c 1,7,-1
 497 72 l 1,8,-1
 497 0 l 1,9,-1
 52 0 l 1,10,-1
 52 41 l 2,11,12
 52 90 52 90 79.5 130.5 c 128,-1,13
 107 171 107 171 148.5 206.5 c 128,-1,14
 190 242 190 242 238 273.5 c 128,-1,15
 286 305 286 305 327.5 337 c 128,-1,16
 369 369 369 369 396.5 402 c 128,-1,17
 424 435 424 435 424 473 c 0,18,19
 424 531 424 531 385.5 564 c 128,-1,20
 347 597 347 597 278 597 c 128,-1,21
 209 597 209 597 167.5 567.5 c 128,-1,22
 126 538 126 538 118 482 c 1,23,-1
 43 482 l 1,24,25
 51 566 51 566 116 618 c 256,26,27
 181 670 181 670 273 670 c 0,28,29
 378 670 378 670 440 614 c 0,30,31
 499 560 499 560 499 472 c 0,0,1
EndSplineSet
EndChar

StartChar: three
Encoding: 51 51 22
Width: 550
Flags: W
LayerCount: 2
Fore
SplineSet
380 353 m 1,0,1
 438 331 438 331 470 287.5 c 128,-1,2
 502 244 502 244 502 195 c 128,-1,3
 502 146 502 146 484.5 109.5 c 128,-1,4
 467 73 467 73 436 47 c 0,5,6
 372 -8 372 -8 277 -8 c 0,7,8
 183 -8 183 -8 116 45 c 0,9,10
 49 99 49 99 41 175 c 1,11,-1
 117 175 l 1,12,13
 125 129 125 129 170 97 c 0,14,15
 216 65 216 65 277 65 c 0,16,17
 346 65 346 65 388 101 c 0,18,19
 427 135 427 135 427 188 c 0,20,21
 427 240 427 240 387 276 c 0,22,23
 345 314 345 314 284 314 c 2,24,-1
 208 314 l 1,25,-1
 208 383 l 1,26,-1
 275 383 l 2,27,28
 327 383 327 383 366 413 c 256,29,30
 405 443 405 443 405 491 c 128,-1,31
 405 539 405 539 372 568 c 128,-1,32
 339 597 339 597 275.5 597 c 128,-1,33
 212 597 212 597 175.5 569 c 128,-1,34
 139 541 139 541 132 503 c 1,35,-1
 59 503 l 1,36,37
 66 569 66 569 120 617 c 0,38,39
 180 670 180 670 271 670 c 0,40,41
 367 670 367 670 424 620 c 0,42,43
 480 572 480 572 480 494 c 0,44,45
 480 448 480 448 446 404 c 1,46,47
 416 363 416 363 380 353 c 1,0,1
EndSplineSet
EndChar

StartChar: four
Encoding: 52 52 23
Width: 550
Flags: W
LayerCount: 2
Fore
SplineSet
511 236 m 1,0,-1
 511 169 l 1,1,-1
 422 169 l 1,2,-1
 422 0 l 1,3,-1
 347 0 l 1,4,-1
 347 169 l 1,5,-1
 31 169 l 1,6,-1
 31 242 l 1,7,-1
 309 662 l 1,8,-1
 422 662 l 1,9,-1
 422 236 l 1,10,-1
 511 236 l 1,0,-1
347 236 m 1,11,-1
 347 598 l 1,12,-1
 101 236 l 1,13,-1
 347 236 l 1,11,-1
EndSplineSet
EndChar

StartChar: five
Encoding: 53 53 24
Width: 550
Flags: W
LayerCount: 2
Fore
SplineSet
162 398 m 1,0,1
 213 429 213 429 271 429 c 128,-1,2
 329 429 329 429 370 413 c 128,-1,3
 411 397 411 397 440 368 c 0,4,5
 502 308 502 308 502 212 c 0,6,7
 502 120 502 120 438 56 c 128,-1,8
 374 -8 374 -8 280 -8 c 0,9,10
 166 -8 166 -8 102 54 c 0,11,12
 55 99 55 99 42 166 c 1,13,-1
 119 166 l 1,14,15
 142 98 142 98 213 74 c 0,16,17
 240 65 240 65 275.5 65 c 128,-1,18
 311 65 311 65 338.5 76.5 c 128,-1,19
 366 88 366 88 386 108 c 0,20,21
 427 151 427 151 427 212 c 0,22,23
 427 277 427 277 386 318 c 256,24,25
 345 359 345 359 279 359 c 0,26,27
 234 359 234 359 199.5 342.5 c 128,-1,28
 165 326 165 326 148 306 c 1,29,-1
 79 348 l 1,30,-1
 124 662 l 1,31,-1
 469 662 l 1,32,-1
 469 590 l 1,33,-1
 192 590 l 1,34,-1
 162 398 l 1,0,1
EndSplineSet
EndChar

StartChar: six
Encoding: 54 54 25
Width: 550
Flags: W
LayerCount: 2
Fore
SplineSet
413 508 m 1,0,1
 385 597 385 597 294 597 c 0,2,3
 206 597 206 597 160 518 c 1,4,5
 118 448 118 448 118 328 c 1,6,7
 142 370 142 370 188.5 396 c 128,-1,8
 235 422 235 422 286.5 422 c 128,-1,9
 338 422 338 422 379 406 c 128,-1,10
 420 390 420 390 450 362 c 0,11,12
 516 300 516 300 516 207 c 0,13,14
 516 116 516 116 449 53 c 0,15,16
 384 -8 384 -8 288 -8 c 0,17,18
 167 -8 167 -8 105 79.5 c 128,-1,19
 43 167 43 167 43 331 c 0,20,21
 43 576 43 576 184 646 c 0,22,23
 231 670 231 670 286.5 670 c 128,-1,24
 342 670 342 670 377 656 c 128,-1,25
 412 642 412 642 436 619 c 0,26,27
 484 575 484 575 497 508 c 1,28,-1
 413 508 l 1,0,1
288 351 m 0,29,30
 256 351 256 351 228.5 341 c 128,-1,31
 201 331 201 331 180 312 c 0,32,33
 135 273 135 273 135 212 c 0,34,35
 135 148 135 148 180 106 c 1,36,37
 222 65 222 65 288 65 c 0,38,39
 352 65 352 65 396 105 c 0,40,41
 441 146 441 146 441 207 c 256,42,43
 441 268 441 268 396 310 c 0,44,45
 351 351 351 351 288 351 c 0,29,30
EndSplineSet
EndChar

StartChar: seven
Encoding: 55 55 26
Width: 550
Flags: W
LayerCount: 2
Fore
SplineSet
506 662 m 1,0,-1
 506 577 l 1,1,-1
 230 0 l 1,2,-1
 143 0 l 1,3,-1
 429 590 l 1,4,-1
 47 590 l 1,5,-1
 47 662 l 1,6,-1
 506 662 l 1,0,-1
EndSplineSet
EndChar

StartChar: eight
Encoding: 56 56 27
Width: 550
Flags: W
LayerCount: 2
Fore
SplineSet
385 364 m 1,0,1
 444 341 444 341 478 294 c 128,-1,2
 512 247 512 247 512 196.5 c 128,-1,3
 512 146 512 146 496 109.5 c 128,-1,4
 480 73 480 73 450 47 c 0,5,6
 387 -8 387 -8 275 -8 c 256,7,8
 163 -8 163 -8 100 47 c 0,9,10
 38 101 38 101 38 190 c 0,11,12
 38 247 38 247 72 294 c 128,-1,13
 106 341 106 341 165 364 c 1,14,15
 127 378 127 378 98 410 c 0,16,17
 64 449 64 449 64 503 c 0,18,19
 64 578 64 578 118 624 c 128,-1,20
 172 670 172 670 275 670 c 256,21,22
 378 670 378 670 432 624 c 128,-1,23
 486 578 486 578 486 503 c 0,24,25
 486 424 486 424 419 382 c 0,26,27
 401 370 401 370 385 364 c 1,0,1
275 396 m 256,28,29
 328 396 328 396 366 420 c 0,30,31
 411 449 411 449 411 498 c 128,-1,32
 411 547 411 547 373 572.5 c 128,-1,33
 335 598 335 598 275 598 c 256,34,35
 215 598 215 598 177 572.5 c 128,-1,36
 139 547 139 547 139 498 c 128,-1,37
 139 449 139 449 180.5 422.5 c 128,-1,38
 222 396 222 396 275 396 c 256,28,29
275 64 m 256,39,40
 350 64 350 64 393.5 98 c 128,-1,41
 437 132 437 132 437 191 c 0,42,43
 437 253 437 253 389 292 c 1,44,45
 344 327 344 327 275 327 c 256,46,47
 206 327 206 327 161 292 c 1,48,49
 113 253 113 253 113 192.5 c 128,-1,50
 113 132 113 132 156.5 98 c 128,-1,51
 200 64 200 64 275 64 c 256,39,40
EndSplineSet
EndChar

StartChar: nine
Encoding: 57 57 28
Width: 550
Flags: W
LayerCount: 2
Fore
SplineSet
137 154 m 1,0,1
 165 65 165 65 256 65 c 0,2,3
 344 65 344 65 390 144 c 1,4,5
 432 214 432 214 432 334 c 1,6,7
 408 292 408 292 361.5 266 c 128,-1,8
 315 240 315 240 263.5 240 c 128,-1,9
 212 240 212 240 171 256 c 128,-1,10
 130 272 130 272 100 300 c 0,11,12
 34 362 34 362 34 455 c 0,13,14
 34 546 34 546 101 609 c 0,15,16
 166 670 166 670 262 670 c 0,17,18
 383 670 383 670 445 582.5 c 128,-1,19
 507 495 507 495 507 331 c 0,20,21
 507 86 507 86 366 16 c 0,22,23
 319 -8 319 -8 263.5 -8 c 128,-1,24
 208 -8 208 -8 173 6 c 128,-1,25
 138 20 138 20 114 43 c 0,26,27
 66 87 66 87 53 154 c 1,28,-1
 137 154 l 1,0,1
262 311 m 0,29,30
 293 311 293 311 321 321 c 128,-1,31
 349 331 349 331 370 350 c 0,32,33
 415 389 415 389 415 450 c 0,34,35
 415 514 415 514 370 556 c 1,36,37
 328 597 328 597 262 597 c 0,38,39
 198 597 198 597 154 557 c 0,40,41
 109 516 109 516 109 455 c 256,42,43
 109 394 109 394 154 352 c 0,44,45
 199 311 199 311 262 311 c 0,29,30
EndSplineSet
EndChar

StartChar: colon
Encoding: 58 58 29
Width: 203
Flags: W
LayerCount: 2
Fore
SplineSet
150 102 m 1,0,-1
 150 0 l 1,1,-1
 53 0 l 1,2,-1
 53 102 l 1,3,-1
 150 102 l 1,0,-1
150 500 m 1,4,-1
 150 398 l 1,5,-1
 53 398 l 1,6,-1
 53 500 l 1,7,-1
 150 500 l 1,4,-1
EndSplineSet
EndChar

StartChar: semicolon
Encoding: 59 59 30
Width: 245
Flags: W
LayerCount: 2
Fore
SplineSet
177 500 m 1,0,-1
 177 398 l 1,1,-1
 80 398 l 1,2,-1
 80 500 l 1,3,-1
 177 500 l 1,0,-1
83 80 m 1,4,-1
 181 80 l 1,5,-1
 93 -133 l 1,6,-1
 25 -133 l 1,7,-1
 83 80 l 1,4,-1
EndSplineSet
EndChar

StartChar: less
Encoding: 60 60 31
Width: 550
Flags: W
LayerCount: 2
Fore
SplineSet
507 8 m 1,0,-1
 26 220 l 1,1,-1
 26 283 l 1,2,-1
 507 496 l 1,3,-1
 507 418 l 1,4,-1
 102 252 l 1,5,-1
 507 86 l 1,6,-1
 507 8 l 1,0,-1
EndSplineSet
EndChar

StartChar: equal
Encoding: 61 61 32
Width: 550
Flags: W
LayerCount: 2
Fore
SplineSet
493 368 m 1,0,-1
 493 301 l 1,1,-1
 57 301 l 1,2,-1
 57 368 l 1,3,-1
 493 368 l 1,0,-1
57 170 m 1,4,-1
 493 170 l 1,5,-1
 493 103 l 1,6,-1
 57 103 l 1,7,-1
 57 170 l 1,4,-1
EndSplineSet
EndChar

StartChar: greater
Encoding: 62 62 33
Width: 550
Flags: W
LayerCount: 2
Fore
SplineSet
42 86 m 1,0,-1
 447 252 l 1,1,-1
 42 418 l 1,2,-1
 42 496 l 1,3,-1
 523 283 l 1,4,-1
 523 220 l 1,5,-1
 42 8 l 1,6,-1
 42 86 l 1,0,-1
EndSplineSet
EndChar

StartChar: question
Encoding: 63 63 34
Width: 515
Flags: W
LayerCount: 2
Fore
SplineSet
465 486 m 0,0,1
 465 450 465 450 453 422 c 128,-1,2
 441 394 441 394 422.5 371.5 c 128,-1,3
 404 349 404 349 382.5 330 c 128,-1,4
 361 311 361 311 342 290 c 0,5,6
 300 242 300 242 300 183 c 1,7,-1
 227 183 l 1,8,9
 227 276 227 276 310 352 c 1,10,11
 361 397 361 397 377.5 427.5 c 128,-1,12
 394 458 394 458 394 483 c 128,-1,13
 394 508 394 508 388 527.5 c 128,-1,14
 382 547 382 547 367 564 c 0,15,16
 333 601 333 601 266 601 c 0,17,18
 197 601 197 601 154 560 c 0,19,20
 114 522 114 522 110 466 c 1,21,-1
 39 466 l 1,22,23
 43 551 43 551 102 609 c 0,24,25
 165 670 165 670 260 670 c 0,26,27
 362 670 362 670 416 614 c 0,28,29
 465 563 465 563 465 486 c 0,0,1
312 102 m 1,30,-1
 312 0 l 1,31,-1
 215 0 l 1,32,-1
 215 102 l 1,33,-1
 312 102 l 1,30,-1
EndSplineSet
EndChar

StartChar: at
Encoding: 64 64 35
Width: 852
Flags: W
LayerCount: 2
Fore
SplineSet
596 221 m 2,0,1
 596 168 596 168 650 168 c 128,-1,2
 704 168 704 168 738.5 215 c 128,-1,3
 773 262 773 262 773 364 c 0,4,5
 773 492 773 492 684 581 c 0,6,7
 596 669 596 669 468 669 c 0,8,9
 393 669 393 669 324 638.5 c 128,-1,10
 255 608 255 608 202.5 556 c 128,-1,11
 150 504 150 504 118.5 435 c 128,-1,12
 87 366 87 366 87 295 c 128,-1,13
 87 224 87 224 110.5 169 c 128,-1,14
 134 114 134 114 176 74 c 1,15,16
 264 -13 264 -13 393 -13 c 128,-1,17
 522 -13 522 -13 612 61 c 1,18,-1
 634 31 l 1,19,20
 532 -50 532 -50 392 -50 c 0,21,22
 317 -50 317 -50 254 -23 c 128,-1,23
 191 4 191 4 146 50.5 c 128,-1,24
 101 97 101 97 75.5 158.5 c 128,-1,25
 50 220 50 220 50 295.5 c 128,-1,26
 50 371 50 371 83.5 446.5 c 128,-1,27
 117 522 117 522 174.5 579.5 c 128,-1,28
 232 637 232 637 308 671.5 c 128,-1,29
 384 706 384 706 460 706 c 128,-1,30
 536 706 536 706 598 680 c 128,-1,31
 660 654 660 654 707 608.5 c 128,-1,32
 754 563 754 563 782 501.5 c 128,-1,33
 810 440 810 440 810 372 c 128,-1,34
 810 304 810 304 794 258 c 128,-1,35
 778 212 778 212 752 182 c 0,36,37
 701 123 701 123 624 123 c 0,38,39
 566 123 566 123 544 158 c 1,40,41
 533 173 533 173 531 193 c 1,42,43
 474 123 474 123 386 123 c 0,44,45
 304 123 304 123 258 170 c 1,46,47
 216 215 216 215 216 289 c 0,48,49
 216 397 216 397 282 465 c 0,50,51
 347 532 347 532 442 532 c 128,-1,52
 537 532 537 532 574 462 c 1,53,-1
 584 526 l 1,54,-1
 644 526 l 1,55,-1
 597 234 l 2,56,57
 596 232 596 232 596 230 c 2,58,-1
 596 221 l 2,0,1
558 358 m 0,59,60
 558 409 558 409 529 444 c 0,61,62
 499 479 499 479 443 479 c 0,63,64
 369 479 369 479 323 429 c 0,65,66
 276 378 276 378 276 295 c 0,67,68
 276 244 276 244 307 210.5 c 128,-1,69
 338 177 338 177 405.5 177 c 128,-1,70
 473 177 473 177 515.5 230 c 128,-1,71
 558 283 558 283 558 358 c 0,59,60
EndSplineSet
EndChar

StartChar: A
Encoding: 65 65 36
Width: 662
Flags: W
LayerCount: 2
Fore
SplineSet
659 0 m 1,0,-1
 576 0 l 1,1,-1
 495 192 l 1,2,-1
 167 192 l 1,3,-1
 86 0 l 1,4,-1
 3 0 l 1,5,-1
 284 662 l 1,6,-1
 378 662 l 1,7,-1
 659 0 l 1,0,-1
466 261 m 1,8,-1
 331 584 l 1,9,-1
 196 261 l 1,10,-1
 466 261 l 1,8,-1
EndSplineSet
EndChar

StartChar: B
Encoding: 66 66 37
Width: 662
Flags: W
LayerCount: 2
Fore
SplineSet
587 487 m 0,0,1
 587 378 587 378 498 338 c 1,2,3
 580 311 580 311 610 239 c 0,4,5
 621 211 621 211 621 174 c 0,6,7
 621 54 621 54 494 14 c 0,8,9
 452 0 452 0 395 0 c 2,10,-1
 81 0 l 1,11,-1
 81 662 l 1,12,-1
 378 662 l 2,13,14
 485 662 485 662 541 604 c 1,15,16
 587 558 587 558 587 487 c 0,0,1
156 366 m 1,17,-1
 378 366 l 2,18,19
 470 366 470 366 501 429 c 0,20,21
 512 451 512 451 512 476.5 c 128,-1,22
 512 502 512 502 505 521.5 c 128,-1,23
 498 541 498 541 483 556 c 0,24,25
 450 591 450 591 386 591 c 2,26,-1
 156 591 l 1,27,-1
 156 366 l 1,17,-1
403 71 m 2,28,29
 472 71 472 71 509 99.5 c 128,-1,30
 546 128 546 128 546 180 c 0,31,32
 546 230 546 230 510 262 c 0,33,34
 470 298 470 298 395 298 c 2,35,-1
 156 298 l 1,36,-1
 156 71 l 1,37,-1
 403 71 l 2,28,29
EndSplineSet
EndChar

StartChar: C
Encoding: 67 67 38
Width: 690
Flags: W
LayerCount: 2
Fore
SplineSet
376 65 m 0,0,1
 447 65 447 65 500.5 101 c 128,-1,2
 554 137 554 137 580 198 c 1,3,-1
 659 198 l 1,4,5
 626 104 626 104 550 50 c 0,6,7
 469 -8 469 -8 359 -8 c 0,8,9
 214 -8 214 -8 124 91 c 1,10,11
 39 186 39 186 39 331 c 128,-1,12
 39 476 39 476 124 571 c 1,13,14
 214 670 214 670 359 670 c 0,15,16
 469 670 469 670 550 612 c 0,17,18
 626 558 626 558 659 464 c 1,19,-1
 580 464 l 1,20,21
 554 525 554 525 500.5 561 c 128,-1,22
 447 597 447 597 376 597 c 128,-1,23
 305 597 305 597 258 576.5 c 128,-1,24
 211 556 211 556 179 520 c 0,25,26
 114 447 114 447 114 331 c 256,27,28
 114 215 114 215 179 142 c 0,29,30
 247 65 247 65 376 65 c 0,0,1
EndSplineSet
EndChar

StartChar: D
Encoding: 68 68 39
Width: 704
Flags: W
LayerCount: 2
Fore
SplineSet
360 662 m 2,0,1
 419 662 419 662 474 639.5 c 128,-1,2
 529 617 529 617 571 574 c 0,3,4
 664 479 664 479 664 331 c 256,5,6
 664 183 664 183 571 88 c 0,7,8
 529 45 529 45 474 22.5 c 128,-1,9
 419 0 419 0 360 0 c 2,10,-1
 81 0 l 1,11,-1
 81 662 l 1,12,-1
 360 662 l 2,0,1
357 71 m 2,13,14
 461 71 461 71 526 148 c 0,15,16
 589 222 589 222 589 331 c 256,17,18
 589 440 589 440 526 514 c 0,19,20
 461 591 461 591 357 591 c 2,21,-1
 156 591 l 1,22,-1
 156 71 l 1,23,-1
 357 71 l 2,13,14
EndSplineSet
EndChar

StartChar: E
Encoding: 69 69 40
Width: 608
Flags: W
LayerCount: 2
Fore
SplineSet
156 590 m 1,0,-1
 156 368 l 1,1,-1
 524 368 l 1,2,-1
 524 295 l 1,3,-1
 156 295 l 1,4,-1
 156 72 l 1,5,-1
 568 72 l 1,6,-1
 568 0 l 1,7,-1
 81 0 l 1,8,-1
 81 662 l 1,9,-1
 568 662 l 1,10,-1
 568 590 l 1,11,-1
 156 590 l 1,0,-1
EndSplineSet
EndChar

StartChar: F
Encoding: 70 70 41
Width: 583
Flags: W
LayerCount: 2
Fore
SplineSet
156 590 m 1,0,-1
 156 360 l 1,1,-1
 515 360 l 1,2,-1
 515 287 l 1,3,-1
 156 287 l 1,4,-1
 156 0 l 1,5,-1
 81 0 l 1,6,-1
 81 662 l 1,7,-1
 559 662 l 1,8,-1
 559 590 l 1,9,-1
 156 590 l 1,0,-1
EndSplineSet
EndChar

StartChar: G
Encoding: 71 71 42
Width: 723
Flags: W
LayerCount: 2
Fore
SplineSet
230 643.5 m 128,-1,1
 290 670 290 670 354 670 c 128,-1,2
 418 670 418 670 465 656 c 128,-1,3
 512 642 512 642 550 618 c 0,4,5
 629 567 629 567 666 482 c 1,6,-1
 584 482 l 1,7,8
 554 536 554 536 500.5 566.5 c 128,-1,9
 447 597 447 597 379 597 c 128,-1,10
 311 597 311 597 263 576.5 c 128,-1,11
 215 556 215 556 182 520 c 0,12,13
 114 446 114 446 114 331 c 0,14,15
 114 215 114 215 181 142 c 0,16,17
 252 65 252 65 369 65 c 0,18,19
 463 65 463 65 531 123 c 0,20,21
 603 184 603 184 603 284 c 1,22,-1
 361 284 l 1,23,-1
 361 352 l 1,24,-1
 672 352 l 1,25,-1
 672 0 l 1,26,-1
 603 0 l 1,27,-1
 603 117 l 1,28,29
 546 31 546 31 445 2 c 0,30,31
 408 -8 408 -8 347.5 -8 c 128,-1,32
 287 -8 287 -8 227 18.5 c 128,-1,33
 167 45 167 45 125 91 c 0,34,35
 39 185 39 185 39 331 c 0,36,37
 39 475 39 475 128 571 c 0,38,0
 170 617 170 617 230 643.5 c 128,-1,1
EndSplineSet
EndChar

StartChar: H
Encoding: 72 72 43
Width: 697
Flags: W
LayerCount: 2
Fore
SplineSet
616 662 m 1,0,-1
 616 0 l 1,1,-1
 541 0 l 1,2,-1
 541 295 l 1,3,-1
 156 295 l 1,4,-1
 156 0 l 1,5,-1
 81 0 l 1,6,-1
 81 662 l 1,7,-1
 156 662 l 1,8,-1
 156 368 l 1,9,-1
 541 368 l 1,10,-1
 541 662 l 1,11,-1
 616 662 l 1,0,-1
EndSplineSet
EndChar

StartChar: I
Encoding: 73 73 44
Width: 237
Flags: W
LayerCount: 2
Fore
SplineSet
156 0 m 1,0,-1
 81 0 l 1,1,-1
 81 662 l 1,2,-1
 156 662 l 1,3,-1
 156 0 l 1,0,-1
EndSplineSet
EndChar

StartChar: J
Encoding: 74 74 45
Width: 527
Flags: W
LayerCount: 2
Fore
SplineSet
452 662 m 1,0,-1
 452 219 l 2,1,2
 452 123 452 123 404 62 c 0,3,4
 348 -8 348 -8 236 -8 c 0,5,6
 135 -8 135 -8 75 50 c 1,7,8
 22 103 22 103 15 177 c 1,9,-1
 93 177 l 1,10,11
 100 133 100 133 134 102 c 0,12,13
 174 65 174 65 240 65 c 0,14,15
 320 65 320 65 354 118 c 0,16,17
 377 155 377 155 377 222 c 2,18,-1
 377 662 l 1,19,-1
 452 662 l 1,0,-1
EndSplineSet
EndChar

StartChar: K
Encoding: 75 75 46
Width: 641
Flags: W
LayerCount: 2
Fore
SplineSet
348 396 m 1,0,-1
 646 0 l 1,1,-1
 552 0 l 1,2,-1
 293 345 l 1,3,-1
 156 217 l 1,4,-1
 156 0 l 1,5,-1
 81 0 l 1,6,-1
 81 662 l 1,7,-1
 156 662 l 1,8,-1
 156 317 l 1,9,-1
 524 662 l 1,10,-1
 630 662 l 1,11,-1
 348 396 l 1,0,-1
EndSplineSet
EndChar

StartChar: L
Encoding: 76 76 47
Width: 533
Flags: W
LayerCount: 2
Fore
SplineSet
156 662 m 1,0,-1
 156 72 l 1,1,-1
 517 72 l 1,2,-1
 517 0 l 1,3,-1
 81 0 l 1,4,-1
 81 662 l 1,5,-1
 156 662 l 1,0,-1
EndSplineSet
EndChar

StartChar: M
Encoding: 77 77 48
Width: 806
Flags: W
LayerCount: 2
Fore
SplineSet
725 662 m 1,0,-1
 725 0 l 1,1,-1
 650 0 l 1,2,-1
 650 548 l 1,3,-1
 405 233 l 1,4,-1
 156 548 l 1,5,-1
 156 0 l 1,6,-1
 81 0 l 1,7,-1
 81 662 l 1,8,-1
 168 662 l 1,9,-1
 405 348 l 1,10,-1
 638 662 l 1,11,-1
 725 662 l 1,0,-1
EndSplineSet
EndChar

StartChar: N
Encoding: 78 78 49
Width: 733
Flags: W
LayerCount: 2
Fore
SplineSet
652 662 m 1,0,-1
 652 0 l 1,1,-1
 565 0 l 1,2,-1
 156 559 l 1,3,-1
 156 0 l 1,4,-1
 81 0 l 1,5,-1
 81 662 l 1,6,-1
 168 662 l 1,7,-1
 577 105 l 1,8,-1
 577 662 l 1,9,-1
 652 662 l 1,0,-1
EndSplineSet
EndChar

StartChar: O
Encoding: 79 79 50
Width: 750
Flags: W
LayerCount: 2
Fore
SplineSet
375 670 m 256,0,1
 523 670 523 670 618 571 c 0,2,3
 711 475 711 475 711 331 c 128,-1,4
 711 187 711 187 618 91 c 0,5,6
 523 -8 523 -8 375 -8 c 256,7,8
 227 -8 227 -8 132 91 c 0,9,10
 39 187 39 187 39 331 c 128,-1,11
 39 475 39 475 132 571 c 0,12,13
 227 670 227 670 375 670 c 256,0,1
375 65 m 256,14,15
 493 65 493 65 566 142 c 0,16,17
 636 216 636 216 636 331 c 256,18,19
 636 446 636 446 566 520 c 0,20,21
 493 597 493 597 375 597 c 256,22,23
 257 597 257 597 184 520 c 0,24,25
 114 446 114 446 114 331 c 256,26,27
 114 216 114 216 184 142 c 0,28,29
 257 65 257 65 375 65 c 256,14,15
EndSplineSet
EndChar

StartChar: P
Encoding: 80 80 51
Width: 628
Flags: W
LayerCount: 2
Fore
SplineSet
156 0 m 1,0,-1
 81 0 l 1,1,-1
 81 662 l 1,2,-1
 379 662 l 2,3,4
 484 662 484 662 546 604 c 0,5,6
 607 546 607 546 607 449 c 0,7,8
 607 351 607 351 545.5 293.5 c 128,-1,9
 484 236 484 236 379 236 c 2,10,-1
 156 236 l 1,11,-1
 156 0 l 1,0,-1
156 591 m 1,12,-1
 156 306 l 1,13,-1
 374 306 l 2,14,15
 452 306 452 306 492 344 c 128,-1,16
 532 382 532 382 532 448.5 c 128,-1,17
 532 515 532 515 492 553 c 128,-1,18
 452 591 452 591 374 591 c 2,19,-1
 156 591 l 1,12,-1
EndSplineSet
EndChar

StartChar: Q
Encoding: 81 81 52
Width: 750
Flags: W
LayerCount: 2
Fore
SplineSet
597 -93 m 0,0,1
 662 -93 662 -93 718 -48 c 1,2,-1
 758 -102 l 1,3,4
 689 -157 689 -157 596 -157 c 0,5,6
 522 -157 522 -157 458 -116 c 256,7,8
 394 -75 394 -75 361 -7 c 1,9,10
 218 -1 218 -1 128 96 c 1,11,12
 39 190 39 190 39 331 c 0,13,14
 39 475 39 475 132 571 c 0,15,16
 227 670 227 670 375 670 c 256,17,18
 523 670 523 670 618 571 c 0,19,20
 711 475 711 475 711 331 c 0,21,22
 711 205 711 205 635 112 c 0,23,24
 559 18 559 18 437 -2 c 1,25,26
 466 -60 466 -60 536 -84 c 0,27,28
 562 -93 562 -93 597 -93 c 0,0,1
375 65 m 256,29,30
 493 65 493 65 566 142 c 0,31,32
 636 216 636 216 636 331 c 256,33,34
 636 446 636 446 566 520 c 0,35,36
 493 597 493 597 375 597 c 256,37,38
 257 597 257 597 184 520 c 0,39,40
 114 446 114 446 114 331 c 256,41,42
 114 216 114 216 184 142 c 0,43,44
 257 65 257 65 375 65 c 256,29,30
EndSplineSet
EndChar

StartChar: R
Encoding: 82 82 53
Width: 669
Flags: W
LayerCount: 2
Fore
SplineSet
156 0 m 1,0,-1
 81 0 l 1,1,-1
 81 662 l 1,2,-1
 398 662 l 2,3,4
 499 662 499 662 560 606 c 0,5,6
 621 551 621 551 621 455 c 0,7,8
 621 331 621 331 518 286 c 0,9,10
 489 273 489 273 461 267 c 1,11,-1
 635 0 l 1,12,-1
 546 0 l 1,13,-1
 386 254 l 1,14,-1
 156 254 l 1,15,-1
 156 0 l 1,0,-1
156 325 m 1,16,-1
 385 325 l 2,17,18
 491 325 491 325 531 391 c 0,19,20
 546 416 546 416 546 455 c 0,21,22
 546 518 546 518 503 554.5 c 128,-1,23
 460 591 460 591 389 591 c 2,24,-1
 156 591 l 1,25,-1
 156 325 l 1,16,-1
EndSplineSet
EndChar

StartChar: S
Encoding: 83 83 54
Width: 615
Flags: W
LayerCount: 2
Fore
SplineSet
131.5 524 m 128,-1,1
 125 504 125 504 125 481.5 c 128,-1,2
 125 459 125 459 144.5 440 c 128,-1,3
 164 421 164 421 196 408 c 128,-1,4
 228 395 228 395 269 385 c 128,-1,5
 310 375 310 375 352.5 364.5 c 128,-1,6
 395 354 395 354 436 340.5 c 128,-1,7
 477 327 477 327 509 306 c 0,8,9
 580 261 580 261 580 183 c 0,10,11
 580 90 580 90 510.5 41 c 128,-1,12
 441 -8 441 -8 318 -8 c 0,13,14
 179 -8 179 -8 106 50 c 0,15,16
 41 102 41 102 32 198 c 1,17,-1
 110 198 l 1,18,19
 114 130 114 130 176 94 c 0,20,21
 230 63 230 63 319 63 c 0,22,23
 505 63 505 63 505 180 c 0,24,25
 505 220 505 220 471.5 243 c 128,-1,26
 438 266 438 266 387.5 281 c 128,-1,27
 337 296 337 296 278.5 309 c 128,-1,28
 220 322 220 322 169.5 342.5 c 128,-1,29
 119 363 119 363 85.5 396.5 c 128,-1,30
 52 430 52 430 52 487 c 0,31,32
 52 568 52 568 114 619 c 128,-1,33
 176 670 176 670 301 670 c 0,34,35
 427 670 427 670 496 612 c 1,36,37
 559 561 559 561 563 481 c 1,38,-1
 486 481 l 1,39,40
 476 563 476 563 380 590 c 0,41,42
 346 600 346 600 295.5 600 c 128,-1,43
 245 600 245 600 210.5 588.5 c 128,-1,44
 176 577 176 577 157 560.5 c 128,-1,0
 138 544 138 544 131.5 524 c 128,-1,1
EndSplineSet
EndChar

StartChar: T
Encoding: 84 84 55
Width: 565
Flags: W
LayerCount: 2
Fore
SplineSet
551 590 m 1,0,-1
 320 590 l 1,1,-1
 320 0 l 1,2,-1
 245 0 l 1,3,-1
 245 590 l 1,4,-1
 14 590 l 1,5,-1
 14 662 l 1,6,-1
 551 662 l 1,7,-1
 551 590 l 1,0,-1
EndSplineSet
EndChar

StartChar: U
Encoding: 85 85 56
Width: 709
Flags: W
LayerCount: 2
Fore
SplineSet
636 662 m 1,0,-1
 636 285 l 2,1,2
 636 153 636 153 557.5 72.5 c 128,-1,3
 479 -8 479 -8 354 -8 c 0,4,5
 230 -8 230 -8 151.5 72.5 c 128,-1,6
 73 153 73 153 73 285 c 2,7,-1
 73 662 l 1,8,-1
 148 662 l 1,9,-1
 148 283 l 2,10,11
 148 176 148 176 212 116 c 0,12,13
 267 65 267 65 354 65 c 256,14,15
 441 65 441 65 497 116 c 0,16,17
 561 175 561 175 561 283 c 2,18,-1
 561 662 l 1,19,-1
 636 662 l 1,0,-1
EndSplineSet
EndChar

StartChar: V
Encoding: 86 86 57
Width: 628
Flags: W
LayerCount: 2
Fore
SplineSet
625 662 m 1,0,-1
 357 0 l 1,1,-1
 271 0 l 1,2,-1
 3 662 l 1,3,-1
 85 662 l 1,4,-1
 314 85 l 1,5,-1
 543 662 l 1,6,-1
 625 662 l 1,0,-1
EndSplineSet
EndChar

StartChar: W
Encoding: 87 87 58
Width: 958
Flags: W
LayerCount: 2
Fore
SplineSet
300 0 m 1,0,-1
 215 0 l 1,1,-1
 9 662 l 1,2,-1
 88 662 l 1,3,-1
 258 106 l 1,4,-1
 436 662 l 1,5,-1
 522 662 l 1,6,-1
 700 106 l 1,7,-1
 870 662 l 1,8,-1
 949 662 l 1,9,-1
 743 0 l 1,10,-1
 658 0 l 1,11,-1
 479 556 l 1,12,-1
 300 0 l 1,0,-1
EndSplineSet
EndChar

StartChar: X
Encoding: 88 88 59
Width: 613
Flags: W
LayerCount: 2
Fore
SplineSet
352 342 m 1,0,-1
 616 0 l 1,1,-1
 521 0 l 1,2,-1
 306 284 l 1,3,-1
 92 0 l 1,4,-1
 -3 0 l 1,5,-1
 261 342 l 1,6,-1
 15 662 l 1,7,-1
 110 662 l 1,8,-1
 306 402 l 1,9,-1
 503 662 l 1,10,-1
 598 662 l 1,11,-1
 352 342 l 1,0,-1
EndSplineSet
EndChar

StartChar: Y
Encoding: 89 89 60
Width: 629
Flags: W
LayerCount: 2
Fore
SplineSet
352 0 m 1,0,-1
 277 0 l 1,1,-1
 277 262 l 1,2,-1
 -1 662 l 1,3,-1
 90 662 l 1,4,-1
 314 340 l 1,5,-1
 538 662 l 1,6,-1
 629 662 l 1,7,-1
 352 262 l 1,8,-1
 352 0 l 1,0,-1
EndSplineSet
EndChar

StartChar: Z
Encoding: 90 90 61
Width: 584
Flags: W
LayerCount: 2
Fore
SplineSet
121 70 m 1,0,-1
 553 70 l 1,1,-1
 553 0 l 1,2,-1
 29 0 l 1,3,-1
 29 71 l 1,4,-1
 461 592 l 1,5,-1
 35 592 l 1,6,-1
 35 662 l 1,7,-1
 553 662 l 1,8,-1
 553 590 l 1,9,-1
 121 70 l 1,0,-1
EndSplineSet
EndChar

StartChar: bracketleft
Encoding: 91 91 62
Width: 280
Flags: W
LayerCount: 2
Fore
SplineSet
132 617 m 1,0,-1
 132 -71 l 1,1,-1
 253 -71 l 1,2,-1
 253 -133 l 1,3,-1
 66 -133 l 1,4,-1
 66 679 l 1,5,-1
 253 679 l 1,6,-1
 253 617 l 1,7,-1
 132 617 l 1,0,-1
EndSplineSet
EndChar

StartChar: backslash
Encoding: 92 92 63
Width: 371
Flags: W
LayerCount: 2
Fore
SplineSet
106 680 m 1,0,-1
 335 -32 l 1,1,-1
 265 -32 l 1,2,-1
 36 680 l 1,3,-1
 106 680 l 1,0,-1
EndSplineSet
EndChar

StartChar: bracketright
Encoding: 93 93 64
Width: 280
Flags: W
LayerCount: 2
Fore
SplineSet
27 617 m 1,0,-1
 27 679 l 1,1,-1
 214 679 l 1,2,-1
 214 -133 l 1,3,-1
 27 -133 l 1,4,-1
 27 -71 l 1,5,-1
 148 -71 l 1,6,-1
 148 617 l 1,7,-1
 27 617 l 1,0,-1
EndSplineSet
EndChar

StartChar: asciicircum
Encoding: 94 94 65
Width: 500
Flags: W
LayerCount: 2
Fore
SplineSet
434 355 m 1,0,-1
 364 355 l 1,1,-1
 255 570 l 1,2,-1
 145 355 l 1,3,-1
 75 355 l 1,4,-1
 224 668 l 1,5,-1
 285 668 l 1,6,-1
 434 355 l 1,0,-1
EndSplineSet
EndChar

StartChar: underscore
Encoding: 95 95 66
Width: 600
Flags: W
LayerCount: 2
Fore
SplineSet
50 -73 m 1,0,-1
 550 -73 l 1,1,-1
 550 -128 l 1,2,-1
 50 -128 l 1,3,-1
 50 -73 l 1,0,-1
EndSplineSet
EndChar

StartChar: grave
Encoding: 96 96 67
Width: 340
Flags: W
LayerCount: 2
Fore
SplineSet
261 570 m 1,0,-1
 200 570 l 1,1,-1
 93 675 l 1,2,-1
 200 675 l 1,3,-1
 261 570 l 1,0,-1
EndSplineSet
EndChar

StartChar: a
Encoding: 97 97 68
Width: 595
Flags: W
LayerCount: 2
Fore
SplineSet
455 80 m 1,0,1
 395 -8 395 -8 276 -8 c 0,2,3
 168 -8 168 -8 100 67 c 0,4,5
 34 141 34 141 34 250 c 256,6,7
 34 359 34 359 100 433 c 0,8,9
 168 508 168 508 281 508 c 128,-1,10
 394 508 394 508 455 419 c 1,11,-1
 455 500 l 1,12,-1
 530 500 l 1,13,-1
 530 0 l 1,14,-1
 455 0 l 1,15,-1
 455 80 l 1,0,1
286 60 m 0,16,17
 367 60 367 60 414 116 c 0,18,19
 459 169 459 169 459 250 c 256,20,21
 459 331 459 331 414 384 c 0,22,23
 367 440 367 440 286 440 c 0,24,25
 206 440 206 440 156 384 c 0,26,27
 109 331 109 331 109 250 c 256,28,29
 109 169 109 169 156 116 c 0,30,31
 206 60 206 60 286 60 c 0,16,17
EndSplineSet
EndChar

StartChar: b
Encoding: 98 98 69
Width: 594
Flags: W
LayerCount: 2
Fore
SplineSet
140 419 m 1,0,1
 201 508 201 508 319 508 c 0,2,3
 427 508 427 508 494 433 c 0,4,5
 561 359 561 359 561 250 c 256,6,7
 561 141 561 141 494 67 c 0,8,9
 427 -8 427 -8 313.5 -8 c 128,-1,10
 200 -8 200 -8 140 80 c 1,11,-1
 140 0 l 1,12,-1
 65 0 l 1,13,-1
 65 700 l 1,14,-1
 140 700 l 1,15,-1
 140 419 l 1,0,1
309 60 m 0,16,17
 389 60 389 60 439 116 c 0,18,19
 486 169 486 169 486 250 c 256,20,21
 486 331 486 331 439 384 c 0,22,23
 389 440 389 440 309 440 c 0,24,25
 228 440 228 440 181 384 c 0,26,27
 136 331 136 331 136 250 c 256,28,29
 136 169 136 169 181 116 c 0,30,31
 228 60 228 60 309 60 c 0,16,17
EndSplineSet
EndChar

StartChar: c
Encoding: 99 99 70
Width: 544
Flags: W
LayerCount: 2
Fore
SplineSet
296 60 m 0,0,1
 344 60 344 60 381 87 c 128,-1,2
 418 114 418 114 435 157 c 1,3,-1
 516 157 l 1,4,5
 493 83 493 83 432 38 c 0,6,7
 368 -8 368 -8 280 -8 c 0,8,9
 170 -8 170 -8 101 67 c 0,10,11
 34 140 34 140 34 250 c 256,12,13
 34 360 34 360 101 433 c 0,14,15
 170 508 170 508 280 508 c 0,16,17
 368 508 368 508 432 462 c 0,18,19
 493 417 493 417 516 343 c 1,20,-1
 435 343 l 1,21,22
 418 386 418 386 381 413 c 128,-1,23
 344 440 344 440 296 440 c 128,-1,24
 248 440 248 440 214.5 425 c 128,-1,25
 181 410 181 410 158 384 c 0,26,27
 109 330 109 330 109 250 c 256,28,29
 109 170 109 170 158 116 c 0,30,31
 208 60 208 60 296 60 c 0,0,1
EndSplineSet
EndChar

StartChar: d
Encoding: 100 100 71
Width: 595
Flags: W
LayerCount: 2
Fore
SplineSet
455 80 m 1,0,1
 395 -8 395 -8 276 -8 c 0,2,3
 168 -8 168 -8 100 67 c 0,4,5
 34 141 34 141 34 250 c 256,6,7
 34 359 34 359 100 433 c 0,8,9
 168 508 168 508 281 508 c 128,-1,10
 394 508 394 508 455 419 c 1,11,-1
 455 700 l 1,12,-1
 530 700 l 1,13,-1
 530 0 l 1,14,-1
 455 0 l 1,15,-1
 455 80 l 1,0,1
286 60 m 0,16,17
 367 60 367 60 414 116 c 0,18,19
 459 169 459 169 459 250 c 256,20,21
 459 331 459 331 414 384 c 0,22,23
 367 440 367 440 286 440 c 0,24,25
 206 440 206 440 156 384 c 0,26,27
 109 331 109 331 109 250 c 256,28,29
 109 169 109 169 156 116 c 0,30,31
 206 60 206 60 286 60 c 0,16,17
EndSplineSet
EndChar

StartChar: e
Encoding: 101 101 72
Width: 557
Flags: W
LayerCount: 2
Fore
SplineSet
288 60 m 0,0,1
 389 60 389 60 433 144 c 1,2,-1
 515 144 l 1,3,4
 489 76 489 76 432.5 34 c 128,-1,5
 376 -8 376 -8 287 -8 c 0,6,7
 174 -8 174 -8 103 67 c 0,8,9
 34 140 34 140 34 250 c 0,10,11
 34 361 34 361 100 433 c 0,12,13
 170 508 170 508 282 508 c 256,14,15
 394 508 394 508 464 433 c 0,16,17
 530 361 530 361 530 250 c 2,18,-1
 530 220 l 1,19,-1
 111 220 l 1,20,21
 119 151 119 151 166 106 c 0,22,23
 214 60 214 60 288 60 c 0,0,1
282 440 m 256,24,25
 213 440 213 440 166 397 c 0,26,27
 122 356 122 356 112 290 c 1,28,-1
 452 290 l 1,29,30
 442 356 442 356 398 397 c 0,31,32
 351 440 351 440 282 440 c 256,24,25
EndSplineSet
EndChar

StartChar: f
Encoding: 102 102 73
Width: 307
Flags: W
LayerCount: 2
Fore
SplineSet
280 637 m 2,0,1
 227 637 227 637 200.5 613.5 c 128,-1,2
 174 590 174 590 174 538 c 2,3,-1
 174 500 l 1,4,-1
 290 500 l 1,5,-1
 290 434 l 1,6,-1
 174 434 l 1,7,-1
 174 0 l 1,8,-1
 99 0 l 1,9,-1
 99 434 l 1,10,-1
 13 434 l 1,11,-1
 13 500 l 1,12,-1
 99 500 l 1,13,-1
 99 544 l 2,14,15
 99 626 99 626 148 667 c 128,-1,16
 197 708 197 708 284 708 c 2,17,-1
 290 708 l 1,18,-1
 290 637 l 1,19,-1
 280 637 l 2,0,1
EndSplineSet
EndChar

StartChar: g
Encoding: 103 103 74
Width: 595
Flags: W
LayerCount: 2
Fore
SplineSet
455 420 m 1,0,-1
 455 500 l 1,1,-1
 530 500 l 1,2,-1
 530 15 l 2,3,4
 530 -93 530 -93 468.5 -149.5 c 128,-1,5
 407 -206 407 -206 303 -206 c 128,-1,6
 199 -206 199 -206 140.5 -166 c 128,-1,7
 82 -126 82 -126 61 -60 c 1,8,-1
 144 -60 l 1,9,10
 176 -138 176 -138 290 -138 c 0,11,12
 377 -138 377 -138 416 -98 c 128,-1,13
 455 -58 455 -58 455 20 c 2,14,-1
 455 89 l 1,15,16
 394 0 394 0 276 0 c 0,17,18
 168 0 168 0 100 74 c 0,19,20
 34 146 34 146 34 254 c 256,21,22
 34 362 34 362 100 434 c 0,23,24
 168 508 168 508 281.5 508 c 128,-1,25
 395 508 395 508 455 420 c 1,0,-1
286 68 m 0,26,27
 327 68 327 68 359 82.5 c 128,-1,28
 391 97 391 97 414 122 c 1,29,30
 459 174 459 174 459 254 c 256,31,32
 459 334 459 334 414 386 c 1,33,34
 365 440 365 440 286 440 c 0,35,36
 205 440 205 440 156 386 c 0,37,38
 109 333 109 333 109 254 c 256,39,40
 109 175 109 175 156 122 c 0,41,42
 205 68 205 68 286 68 c 0,26,27
EndSplineSet
EndChar

StartChar: h
Encoding: 104 104 75
Width: 566
Flags: W
LayerCount: 2
Fore
SplineSet
140 700 m 1,0,-1
 140 422 l 1,1,2
 167 458 167 458 206 483 c 128,-1,3
 245 508 245 508 295 508 c 128,-1,4
 345 508 345 508 381 494 c 128,-1,5
 417 480 417 480 444 452 c 1,6,7
 506 391 506 391 506 291 c 2,8,-1
 506 0 l 1,9,-1
 431 0 l 1,10,-1
 431 289 l 2,11,12
 431 358 431 358 392 399 c 128,-1,13
 353 440 353 440 291 440 c 0,14,15
 228 440 228 440 184 398 c 0,16,17
 140 355 140 355 140 288 c 2,18,-1
 140 0 l 1,19,-1
 65 0 l 1,20,-1
 65 700 l 1,21,-1
 140 700 l 1,0,-1
EndSplineSet
EndChar

StartChar: i
Encoding: 105 105 76
Width: 205
Flags: W
LayerCount: 2
Fore
SplineSet
65 500 m 1,0,-1
 140 500 l 1,1,-1
 140 0 l 1,2,-1
 65 0 l 1,3,-1
 65 500 l 1,0,-1
143 682 m 1,4,-1
 143 584 l 1,5,-1
 62 584 l 1,6,-1
 62 682 l 1,7,-1
 143 682 l 1,4,-1
EndSplineSet
EndChar

StartChar: j
Encoding: 106 106 77
Width: 205
Flags: W
LayerCount: 2
Fore
SplineSet
65 500 m 1,0,-1
 140 500 l 1,1,-1
 140 -198 l 1,2,-1
 65 -198 l 1,3,-1
 65 500 l 1,0,-1
143 682 m 1,4,-1
 143 584 l 1,5,-1
 62 584 l 1,6,-1
 62 682 l 1,7,-1
 143 682 l 1,4,-1
EndSplineSet
EndChar

StartChar: k
Encoding: 107 107 78
Width: 502
Flags: W
LayerCount: 2
Fore
SplineSet
285 303 m 1,0,-1
 501 0 l 1,1,-1
 409 0 l 1,2,-1
 234 251 l 1,3,-1
 140 158 l 1,4,-1
 140 0 l 1,5,-1
 65 0 l 1,6,-1
 65 700 l 1,7,-1
 140 700 l 1,8,-1
 140 252 l 1,9,-1
 381 500 l 1,10,-1
 486 500 l 1,11,-1
 285 303 l 1,0,-1
EndSplineSet
EndChar

StartChar: l
Encoding: 108 108 79
Width: 205
Flags: W
LayerCount: 2
Fore
SplineSet
140 0 m 1,0,-1
 65 0 l 1,1,-1
 65 700 l 1,2,-1
 140 700 l 1,3,-1
 140 0 l 1,0,-1
EndSplineSet
EndChar

StartChar: m
Encoding: 109 109 80
Width: 868
Flags: W
LayerCount: 2
Fore
SplineSet
140 424 m 1,0,1
 190 508 190 508 292 508 c 0,2,3
 342 508 342 508 384.5 481.5 c 128,-1,4
 427 455 427 455 451 407 c 1,5,6
 485 470 485 470 557 497 c 0,7,8
 586 508 586 508 622.5 508 c 128,-1,9
 659 508 659 508 692.5 493.5 c 128,-1,10
 726 479 726 479 752 452 c 0,11,12
 808 392 808 392 808 302 c 2,13,-1
 808 0 l 1,14,-1
 733 0 l 1,15,-1
 733 300 l 2,16,17
 733 362 733 362 698 402 c 1,18,19
 663 440 663 440 609 440 c 0,20,21
 552 440 552 440 514 403 c 0,22,23
 474 365 474 365 474 299 c 2,24,-1
 474 0 l 1,25,-1
 399 0 l 1,26,-1
 399 300 l 2,27,28
 399 362 399 362 364 402 c 1,29,30
 329 440 329 440 275 440 c 0,31,32
 218 440 218 440 180 403 c 0,33,34
 140 365 140 365 140 299 c 2,35,-1
 140 0 l 1,36,-1
 65 0 l 1,37,-1
 65 500 l 1,38,-1
 140 500 l 1,39,-1
 140 424 l 1,0,1
EndSplineSet
EndChar

StartChar: n
Encoding: 110 110 81
Width: 566
Flags: W
LayerCount: 2
Fore
SplineSet
140 500 m 1,0,-1
 140 422 l 1,1,2
 167 458 167 458 206 483 c 128,-1,3
 245 508 245 508 295 508 c 128,-1,4
 345 508 345 508 381 494 c 128,-1,5
 417 480 417 480 444 452 c 1,6,7
 506 391 506 391 506 291 c 2,8,-1
 506 0 l 1,9,-1
 431 0 l 1,10,-1
 431 289 l 2,11,12
 431 358 431 358 392 399 c 128,-1,13
 353 440 353 440 291 440 c 0,14,15
 228 440 228 440 184 398 c 0,16,17
 140 355 140 355 140 288 c 2,18,-1
 140 0 l 1,19,-1
 65 0 l 1,20,-1
 65 500 l 1,21,-1
 140 500 l 1,0,-1
EndSplineSet
EndChar

StartChar: o
Encoding: 111 111 82
Width: 564
Flags: W
LayerCount: 2
Fore
SplineSet
282 508 m 256,0,1
 394 508 394 508 464 433 c 0,2,3
 530 361 530 361 530 250 c 256,4,5
 530 139 530 139 464 67 c 0,6,7
 394 -8 394 -8 282 -8 c 256,8,9
 170 -8 170 -8 100 67 c 0,10,11
 34 139 34 139 34 250 c 256,12,13
 34 361 34 361 100 433 c 0,14,15
 170 508 170 508 282 508 c 256,0,1
282 60 m 256,16,17
 363 60 363 60 410 116 c 0,18,19
 455 169 455 169 455 250 c 256,20,21
 455 331 455 331 410 384 c 0,22,23
 363 440 363 440 282 440 c 256,24,25
 201 440 201 440 154 384 c 0,26,27
 109 331 109 331 109 250 c 256,28,29
 109 169 109 169 154 116 c 0,30,31
 201 60 201 60 282 60 c 256,16,17
EndSplineSet
EndChar

StartChar: p
Encoding: 112 112 83
Width: 594
Flags: W
LayerCount: 2
Fore
SplineSet
140 420 m 1,0,1
 200 508 200 508 319 508 c 0,2,3
 427 508 427 508 494 433 c 0,4,5
 561 359 561 359 561 250 c 256,6,7
 561 141 561 141 494 67 c 0,8,9
 427 -8 427 -8 314 -8 c 128,-1,10
 201 -8 201 -8 140 81 c 1,11,-1
 140 -198 l 1,12,-1
 65 -198 l 1,13,-1
 65 500 l 1,14,-1
 140 500 l 1,15,-1
 140 420 l 1,0,1
309 440 m 0,16,17
 228 440 228 440 181 384 c 0,18,19
 136 331 136 331 136 250 c 256,20,21
 136 169 136 169 181 116 c 0,22,23
 228 60 228 60 309 60 c 0,24,25
 389 60 389 60 439 116 c 0,26,27
 486 169 486 169 486 250 c 256,28,29
 486 331 486 331 439 384 c 0,30,31
 389 440 389 440 309 440 c 0,16,17
EndSplineSet
EndChar

StartChar: q
Encoding: 113 113 84
Width: 595
Flags: W
LayerCount: 2
Fore
SplineSet
455 81 m 1,0,1
 394 -8 394 -8 276 -8 c 0,2,3
 168 -8 168 -8 100 67 c 0,4,5
 34 141 34 141 34 250 c 256,6,7
 34 359 34 359 100 433 c 0,8,9
 168 508 168 508 281.5 508 c 128,-1,10
 395 508 395 508 455 420 c 1,11,-1
 455 500 l 1,12,-1
 530 500 l 1,13,-1
 530 -198 l 1,14,-1
 455 -198 l 1,15,-1
 455 81 l 1,0,1
286 440 m 0,16,17
 206 440 206 440 156 384 c 0,18,19
 109 331 109 331 109 250 c 256,20,21
 109 169 109 169 156 116 c 0,22,23
 206 60 206 60 286 60 c 0,24,25
 367 60 367 60 414 116 c 0,26,27
 459 169 459 169 459 250 c 256,28,29
 459 331 459 331 414 384 c 0,30,31
 367 440 367 440 286 440 c 0,16,17
EndSplineSet
EndChar

StartChar: r
Encoding: 114 114 85
Width: 345
Flags: W
LayerCount: 2
Fore
SplineSet
329 508 m 1,0,-1
 329 433 l 1,1,-1
 320 433 l 2,2,3
 239 433 239 433 188 368 c 0,4,5
 140 306 140 306 140 220 c 2,6,-1
 140 0 l 1,7,-1
 65 0 l 1,8,-1
 65 500 l 1,9,-1
 140 500 l 1,10,-1
 140 377 l 1,11,12
 164 455 164 455 244 492 c 0,13,14
 277 508 277 508 324 508 c 2,15,-1
 329 508 l 1,0,-1
EndSplineSet
EndChar

StartChar: s
Encoding: 115 115 86
Width: 482
Flags: W
LayerCount: 2
Fore
SplineSet
359 366 m 1,0,1
 349 444 349 444 233.5 444 c 128,-1,2
 118 444 118 444 118 372 c 0,3,4
 118 342 118 342 142.5 326.5 c 128,-1,5
 167 311 167 311 204 301 c 128,-1,6
 241 291 241 291 284.5 282.5 c 128,-1,7
 328 274 328 274 365 258.5 c 128,-1,8
 402 243 402 243 426.5 216 c 128,-1,9
 451 189 451 189 451 142 c 0,10,11
 451 69 451 69 396 30.5 c 128,-1,12
 341 -8 341 -8 247 -8 c 0,13,14
 147 -8 147 -8 88 42 c 1,15,16
 34 86 34 86 30 157 c 1,17,-1
 108 157 l 1,18,19
 115 88 115 88 186 64 c 0,20,21
 212 56 212 56 237.5 56 c 128,-1,22
 263 56 263 56 285 59 c 128,-1,23
 307 62 307 62 328 70 c 0,24,25
 376 89 376 89 376 135 c 0,26,27
 376 166 376 166 351.5 182.5 c 128,-1,28
 327 199 327 199 290 209.5 c 128,-1,29
 253 220 253 220 209.5 228.5 c 128,-1,30
 166 237 166 237 129 252 c 128,-1,31
 92 267 92 267 67.5 293 c 128,-1,32
 43 319 43 319 43 365 c 0,33,34
 43 433 43 433 92.5 470.5 c 128,-1,35
 142 508 142 508 239 508 c 0,36,37
 331 508 331 508 384 464 c 0,38,39
 428 427 428 427 435 366 c 1,40,-1
 359 366 l 1,0,1
EndSplineSet
EndChar

StartChar: t
Encoding: 116 116 87
Width: 326
Flags: W
LayerCount: 2
Fore
SplineSet
119 0 m 1,0,-1
 119 434 l 1,1,-1
 17 434 l 1,2,-1
 17 500 l 1,3,-1
 119 500 l 1,4,-1
 119 679 l 1,5,-1
 194 679 l 1,6,-1
 194 500 l 1,7,-1
 309 500 l 1,8,-1
 309 434 l 1,9,-1
 194 434 l 1,10,-1
 194 0 l 1,11,-1
 119 0 l 1,0,-1
EndSplineSet
EndChar

StartChar: u
Encoding: 117 117 88
Width: 566
Flags: W
LayerCount: 2
Fore
SplineSet
426 0 m 1,0,-1
 426 78 l 1,1,2
 399 42 399 42 360 17 c 128,-1,3
 321 -8 321 -8 271 -8 c 128,-1,4
 221 -8 221 -8 185 6 c 128,-1,5
 149 20 149 20 122 48 c 1,6,7
 60 109 60 109 60 209 c 2,8,-1
 60 500 l 1,9,-1
 135 500 l 1,10,-1
 135 211 l 2,11,12
 135 142 135 142 174 101 c 128,-1,13
 213 60 213 60 275 60 c 0,14,15
 338 60 338 60 382 102 c 0,16,17
 426 145 426 145 426 212 c 2,18,-1
 426 500 l 1,19,-1
 501 500 l 1,20,-1
 501 0 l 1,21,-1
 426 0 l 1,0,-1
EndSplineSet
EndChar

StartChar: v
Encoding: 118 118 89
Width: 489
Flags: W
LayerCount: 2
Fore
SplineSet
484 500 m 1,0,-1
 289 0 l 1,1,-1
 201 0 l 1,2,-1
 5 500 l 1,3,-1
 87 500 l 1,4,-1
 245 80 l 1,5,-1
 402 500 l 1,6,-1
 484 500 l 1,0,-1
EndSplineSet
EndChar

StartChar: w
Encoding: 119 119 90
Width: 754
Flags: W
LayerCount: 2
Fore
SplineSet
377 399 m 1,0,-1
 252 0 l 1,1,-1
 166 0 l 1,2,-1
 9 500 l 1,3,-1
 89 500 l 1,4,-1
 209 93 l 1,5,-1
 336 500 l 1,6,-1
 418 500 l 1,7,-1
 545 93 l 1,8,-1
 665 500 l 1,9,-1
 745 500 l 1,10,-1
 588 0 l 1,11,-1
 502 0 l 1,12,-1
 377 399 l 1,0,-1
EndSplineSet
EndChar

StartChar: x
Encoding: 120 120 91
Width: 482
Flags: W
LayerCount: 2
Fore
SplineSet
284 258 m 1,0,-1
 478 0 l 1,1,-1
 382 0 l 1,2,-1
 241 204 l 1,3,-1
 99 0 l 1,4,-1
 4 0 l 1,5,-1
 197 258 l 1,6,-1
 16 500 l 1,7,-1
 112 500 l 1,8,-1
 241 311 l 1,9,-1
 369 500 l 1,10,-1
 465 500 l 1,11,-1
 284 258 l 1,0,-1
EndSplineSet
EndChar

StartChar: y
Encoding: 121 121 92
Width: 497
Flags: W
LayerCount: 2
Fore
SplineSet
198 -198 m 1,0,-1
 117 -198 l 1,1,-1
 208 7 l 1,2,-1
 4 500 l 1,3,-1
 87 500 l 1,4,-1
 248 90 l 1,5,-1
 412 500 l 1,6,-1
 494 500 l 1,7,-1
 198 -198 l 1,0,-1
EndSplineSet
EndChar

StartChar: z
Encoding: 122 122 93
Width: 458
Flags: W
LayerCount: 2
Fore
SplineSet
125 70 m 1,0,-1
 425 70 l 1,1,-1
 425 0 l 1,2,-1
 31 0 l 1,3,-1
 31 71 l 1,4,-1
 330 431 l 1,5,-1
 35 431 l 1,6,-1
 35 500 l 1,7,-1
 425 500 l 1,8,-1
 425 430 l 1,9,-1
 125 70 l 1,0,-1
EndSplineSet
EndChar

StartChar: braceleft
Encoding: 123 123 94
Width: 294
Flags: W
LayerCount: 2
Fore
SplineSet
96 273 m 1,0,1
 166 238 166 238 166 144 c 2,2,-1
 166 12 l 2,3,4
 166 -40 166 -40 187.5 -59.5 c 128,-1,5
 209 -79 209 -79 269 -79 c 1,6,-1
 269 -133 l 1,7,8
 233 -133 233 -133 202.5 -129.5 c 128,-1,9
 172 -126 172 -126 149 -112 c 0,10,11
 100 -81 100 -81 100 11 c 2,12,-1
 100 155 l 2,13,14
 100 201 100 201 72 228 c 0,15,16
 49 250 49 250 21 250 c 1,17,-1
 21 296 l 1,18,19
 49 296 49 296 66 313 c 0,20,21
 100 345 100 345 100 391 c 2,22,-1
 100 535 l 2,23,24
 100 664 100 664 202 676 c 0,25,26
 233 679 233 679 269 679 c 1,27,-1
 269 625 l 1,28,29
 209 625 209 625 187.5 605.5 c 128,-1,30
 166 586 166 586 166 534 c 2,31,-1
 166 402 l 2,32,33
 166 346 166 346 145 316 c 128,-1,34
 124 286 124 286 96 273 c 1,0,1
EndSplineSet
EndChar

StartChar: bar
Encoding: 124 124 95
Width: 191
Flags: W
LayerCount: 2
Fore
SplineSet
65 -179 m 1,0,-1
 65 748 l 1,1,-1
 126 748 l 1,2,-1
 126 -179 l 1,3,-1
 65 -179 l 1,0,-1
EndSplineSet
EndChar

StartChar: braceright
Encoding: 125 125 96
Width: 294
Flags: W
LayerCount: 2
Fore
SplineSet
128 144 m 2,0,1
 128 238 128 238 198 273 c 1,2,3
 170 286 170 286 149 316 c 128,-1,4
 128 346 128 346 128 402 c 2,5,-1
 128 534 l 2,6,7
 128 586 128 586 106.5 605.5 c 128,-1,8
 85 625 85 625 25 625 c 1,9,-1
 25 679 l 1,10,11
 61 679 61 679 91.5 675.5 c 128,-1,12
 122 672 122 672 145 658 c 0,13,14
 194 627 194 627 194 535 c 2,15,-1
 194 391 l 2,16,17
 194 345 194 345 222 318 c 0,18,19
 245 296 245 296 273 296 c 1,20,-1
 273 250 l 1,21,22
 245 250 245 250 228 233 c 0,23,24
 194 201 194 201 194 155 c 2,25,-1
 194 11 l 2,26,27
 194 -118 194 -118 92 -130 c 0,28,29
 61 -133 61 -133 25 -133 c 1,30,-1
 25 -79 l 1,31,32
 85 -79 85 -79 106.5 -59.5 c 128,-1,33
 128 -40 128 -40 128 12 c 2,34,-1
 128 144 l 2,0,1
EndSplineSet
EndChar

StartChar: asciitilde
Encoding: 126 126 97
Width: 524
Flags: W
LayerCount: 2
Fore
SplineSet
48 215 m 1,0,1
 63 349 63 349 160 349 c 0,2,3
 197 349 197 349 250 328 c 128,-1,4
 303 307 303 307 328.5 297.5 c 128,-1,5
 354 288 354 288 373.5 288 c 128,-1,6
 393 288 393 288 407 297 c 128,-1,7
 421 306 421 306 429 318 c 128,-1,8
 437 330 437 330 440.5 342 c 128,-1,9
 444 354 444 354 446 360 c 1,10,-1
 478 360 l 1,11,12
 468 303 468 303 454 278.5 c 128,-1,13
 440 254 440 254 420 240 c 128,-1,14
 400 226 400 226 370.5 226 c 128,-1,15
 341 226 341 226 311 235.5 c 128,-1,16
 281 245 281 245 252 256 c 128,-1,17
 223 267 223 267 197.5 276.5 c 128,-1,18
 172 286 172 286 152 286 c 128,-1,19
 132 286 132 286 118 277.5 c 128,-1,20
 104 269 104 269 96 257 c 128,-1,21
 88 245 88 245 84.5 233 c 128,-1,22
 81 221 81 221 79 215 c 1,23,-1
 48 215 l 1,0,1
EndSplineSet
EndChar

StartChar: cent
Encoding: 162 162 99
Width: 574
Flags: W
LayerCount: 2
Fore
SplineSet
316 60 m 1,0,1
 365 64 365 64 398.5 90 c 128,-1,2
 432 116 432 116 449 157 c 1,3,-1
 530 157 l 1,4,5
 510 88 510 88 453.5 43.5 c 128,-1,6
 397 -1 397 -1 316 -7 c 1,7,-1
 316 -101 l 1,8,-1
 280 -101 l 1,9,-1
 280 -8 l 1,10,11
 174 -2 174 -2 111 72 c 256,12,13
 48 146 48 146 48 250 c 256,14,15
 48 354 48 354 111 428 c 256,16,17
 174 502 174 502 280 508 c 1,18,-1
 280 595 l 1,19,-1
 316 595 l 1,20,-1
 316 507 l 1,21,22
 397 501 397 501 453.5 456.5 c 128,-1,23
 510 412 510 412 530 343 c 1,24,-1
 449 343 l 1,25,26
 432 384 432 384 398.5 410 c 128,-1,27
 365 436 365 436 316 440 c 1,28,-1
 316 60 l 1,0,1
123 250 m 256,29,30
 123 178 123 178 165 124 c 0,31,32
 209 69 209 69 280 61 c 1,33,-1
 280 439 l 1,34,35
 207 429 207 429 165 376 c 0,36,37
 123 322 123 322 123 250 c 256,29,30
EndSplineSet
EndChar

StartChar: sterling
Encoding: 163 163 100
Width: 575
Flags: W
LayerCount: 2
Fore
SplineSet
328 670 m 0,0,1
 380 670 380 670 414.5 657.5 c 128,-1,2
 449 645 449 645 473 624 c 0,3,4
 518 585 518 585 531 518 c 1,5,-1
 460 518 l 1,6,7
 443 573 443 573 385 592 c 0,8,9
 364 599 364 599 327.5 599 c 128,-1,10
 291 599 291 599 264 584.5 c 128,-1,11
 237 570 237 570 223 548 c 0,12,13
 201 513 201 513 201 446 c 2,14,-1
 201 377 l 1,15,-1
 349 377 l 1,16,-1
 349 319 l 1,17,-1
 201 319 l 1,18,-1
 201 70 l 1,19,-1
 504 70 l 1,20,-1
 504 0 l 1,21,-1
 48 0 l 1,22,-1
 48 61 l 1,23,-1
 128 70 l 1,24,-1
 128 319 l 1,25,-1
 57 319 l 1,26,-1
 57 377 l 1,27,-1
 128 377 l 1,28,-1
 128 449 l 2,29,30
 128 544 128 544 174 603 c 0,31,32
 226 670 226 670 328 670 c 0,0,1
EndSplineSet
EndChar

StartChar: currency
Encoding: 164 164 101
Width: 567
Flags: W
LayerCount: 2
Fore
SplineSet
455 450 m 1,0,1
 496 397 496 397 496 324.5 c 128,-1,2
 496 252 496 252 455 197 c 1,3,-1
 519 133 l 1,4,-1
 475 88 l 1,5,-1
 410 153 l 1,6,7
 356 111 356 111 284.5 111 c 128,-1,8
 213 111 213 111 157 153 c 1,9,-1
 93 88 l 1,10,-1
 48 133 l 1,11,-1
 112 197 l 1,12,13
 71 252 71 252 71 324.5 c 128,-1,14
 71 397 71 397 112 450 c 1,15,-1
 48 515 l 1,16,-1
 93 560 l 1,17,-1
 157 495 l 1,18,19
 212 536 212 536 284.5 536 c 128,-1,20
 357 536 357 536 410 495 c 1,21,-1
 475 560 l 1,22,-1
 519 515 l 1,23,-1
 455 450 l 1,0,1
284 172 m 0,24,25
 315 172 315 172 343 184 c 128,-1,26
 371 196 371 196 392 216 c 1,27,28
 436 261 436 261 436 324 c 128,-1,29
 436 387 436 387 391.5 431.5 c 128,-1,30
 347 476 347 476 284 476 c 128,-1,31
 221 476 221 476 176.5 431.5 c 128,-1,32
 132 387 132 387 132 324 c 128,-1,33
 132 261 132 261 176.5 216.5 c 128,-1,34
 221 172 221 172 284 172 c 0,24,25
EndSplineSet
EndChar

StartChar: yen
Encoding: 165 165 102
Width: 657
Flags: W
LayerCount: 2
Fore
SplineSet
98 190 m 1,0,-1
 291 190 l 1,1,-1
 291 262 l 1,2,-1
 274 289 l 1,3,-1
 98 289 l 1,4,-1
 98 354 l 1,5,-1
 232 354 l 1,6,-1
 37 662 l 1,7,-1
 128 662 l 1,8,-1
 328 340 l 1,9,-1
 529 662 l 1,10,-1
 620 662 l 1,11,-1
 424 354 l 1,12,-1
 559 354 l 1,13,-1
 559 289 l 1,14,-1
 383 289 l 1,15,-1
 366 262 l 1,16,-1
 366 190 l 1,17,-1
 559 190 l 1,18,-1
 559 125 l 1,19,-1
 366 125 l 1,20,-1
 366 0 l 1,21,-1
 291 0 l 1,22,-1
 291 125 l 1,23,-1
 98 125 l 1,24,-1
 98 190 l 1,0,-1
EndSplineSet
EndChar

StartChar: section
Encoding: 167 167 103
Width: 519
Flags: W
LayerCount: 2
Fore
SplineSet
396 74 m 1,0,1
 435 31 435 31 435 -20.5 c 128,-1,2
 435 -72 435 -72 416 -101.5 c 128,-1,3
 397 -131 397 -131 370 -148 c 0,4,5
 321 -178 321 -178 250 -178 c 0,6,7
 169 -178 169 -178 113 -131 c 0,8,9
 59 -86 59 -86 53 -19 c 1,10,-1
 122 -19 l 1,11,12
 128 -56 128 -56 163 -82 c 0,13,14
 201 -111 201 -111 250 -111 c 128,-1,15
 299 -111 299 -111 330.5 -91 c 128,-1,16
 362 -71 362 -71 362 -36 c 128,-1,17
 362 -1 362 -1 338.5 24.5 c 128,-1,18
 315 50 315 50 280 73.5 c 128,-1,19
 245 97 245 97 204.5 120 c 128,-1,20
 164 143 164 143 129 169.5 c 128,-1,21
 94 196 94 196 70.5 227 c 128,-1,22
 47 258 47 258 47 298 c 0,23,24
 47 385 47 385 124 416 c 1,25,26
 86 463 86 463 86 513 c 128,-1,27
 86 563 86 563 104 592.5 c 128,-1,28
 122 622 122 622 150 639 c 0,29,30
 198 669 198 669 267 669 c 0,31,32
 347 669 347 669 402 622 c 0,33,34
 454 577 454 577 460 510 c 1,35,-1
 391 510 l 1,36,37
 385 547 385 547 352 573 c 0,38,39
 316 602 316 602 267 602 c 128,-1,40
 218 602 218 602 188.5 582 c 128,-1,41
 159 562 159 562 159 527.5 c 128,-1,42
 159 493 159 493 182.5 467 c 128,-1,43
 206 441 206 441 241 417.5 c 128,-1,44
 276 394 276 394 316.5 371 c 128,-1,45
 357 348 357 348 392 321.5 c 128,-1,46
 427 295 427 295 450.5 264 c 128,-1,47
 474 233 474 233 474 193 c 0,48,49
 474 105 474 105 396 74 c 1,0,1
360 109 m 1,50,51
 401 128 401 128 401 169 c 128,-1,52
 401 210 401 210 376.5 236 c 128,-1,53
 352 262 352 262 316 285.5 c 128,-1,54
 280 309 280 309 238 331.5 c 128,-1,55
 196 354 196 354 161 382 c 1,56,57
 120 362 120 362 120 321.5 c 128,-1,58
 120 281 120 281 144.5 254.5 c 128,-1,59
 169 228 169 228 205 205 c 128,-1,60
 241 182 241 182 283 159.5 c 128,-1,61
 325 137 325 137 360 109 c 1,50,51
EndSplineSet
EndChar

StartChar: dieresis
Encoding: 168 168 104
Width: 423
Flags: W
LayerCount: 2
Fore
SplineSet
163 662 m 1,0,-1
 163 579 l 1,1,-1
 74 579 l 1,2,-1
 74 662 l 1,3,-1
 163 662 l 1,0,-1
320 662 m 1,4,-1
 320 579 l 1,5,-1
 231 579 l 1,6,-1
 231 662 l 1,7,-1
 320 662 l 1,4,-1
EndSplineSet
EndChar

StartChar: copyright
Encoding: 169 169 105
Width: 779
Flags: W
LayerCount: 2
Fore
SplineSet
466.5 440 m 128,-1,1
 438 461 438 461 387 461 c 128,-1,2
 336 461 336 461 303 424.5 c 128,-1,3
 270 388 270 388 270 329 c 256,4,5
 270 270 270 270 303 233.5 c 128,-1,6
 336 197 336 197 387 197 c 128,-1,7
 438 197 438 197 466.5 218 c 128,-1,8
 495 239 495 239 502 276 c 1,9,-1
 569 276 l 1,10,11
 557 206 557 206 508 168 c 0,12,13
 462 133 462 133 389 133 c 0,14,15
 302 133 302 133 252 188 c 0,16,17
 202 244 202 244 202 329 c 0,18,19
 202 415 202 415 252 469 c 0,20,21
 303 524 303 524 389 524 c 0,22,23
 499 524 499 524 547 444 c 0,24,25
 563 418 563 418 569 382 c 1,26,-1
 502 382 l 1,27,0
 495 419 495 419 466.5 440 c 128,-1,1
389 672 m 256,28,29
 460 672 460 672 522.5 645 c 128,-1,30
 585 618 585 618 631.5 571.5 c 128,-1,31
 678 525 678 525 705 462.5 c 128,-1,32
 732 400 732 400 732 329 c 256,33,34
 732 258 732 258 705 196 c 128,-1,35
 678 134 678 134 631.5 87.5 c 128,-1,36
 585 41 585 41 522.5 14 c 128,-1,37
 460 -13 460 -13 389 -13 c 256,38,39
 318 -13 318 -13 256 14 c 128,-1,40
 194 41 194 41 147.5 87.5 c 128,-1,41
 101 134 101 134 74 196 c 128,-1,42
 47 258 47 258 47 329 c 256,43,44
 47 400 47 400 74 462.5 c 128,-1,45
 101 525 101 525 147.5 571.5 c 128,-1,46
 194 618 194 618 256 645 c 128,-1,47
 318 672 318 672 389 672 c 256,28,29
389 36 m 0,48,49
 511 36 511 36 597 122 c 0,50,51
 637 162 637 162 660 215.5 c 128,-1,52
 683 269 683 269 683 329.5 c 128,-1,53
 683 390 683 390 660 443.5 c 128,-1,54
 637 497 637 497 597 537 c 0,55,56
 511 623 511 623 389 623 c 0,57,58
 266 623 266 623 182 537 c 0,59,60
 96 450 96 450 96 329 c 0,61,62
 96 269 96 269 119 215.5 c 128,-1,63
 142 162 142 162 182 122 c 0,64,65
 266 36 266 36 389 36 c 0,48,49
EndSplineSet
EndChar

StartChar: ordfeminine
Encoding: 170 170 106
Width: 371
Flags: W
LayerCount: 2
Fore
SplineSet
262 619 m 1,0,-1
 262 662 l 1,1,-1
 314 662 l 1,2,-1
 314 396 l 1,3,-1
 262 396 l 1,4,-1
 262 439 l 1,5,6
 230 392 230 392 167 392 c 0,7,8
 108 392 108 392 72 432 c 0,9,10
 37 471 37 471 37 529 c 128,-1,11
 37 587 37 587 72 626 c 0,12,13
 108 666 108 666 168 666 c 128,-1,14
 228 666 228 666 262 619 c 1,0,-1
111 465 m 128,-1,16
 133 440 133 440 175 440 c 128,-1,17
 217 440 217 440 240 465.5 c 128,-1,18
 263 491 263 491 263 529 c 256,19,20
 263 567 263 567 240 592.5 c 128,-1,21
 217 618 217 618 175 618 c 128,-1,22
 133 618 133 618 111 592.5 c 128,-1,23
 89 567 89 567 89 528.5 c 128,-1,15
 89 490 89 490 111 465 c 128,-1,16
EndSplineSet
EndChar

StartChar: guillemotleft
Encoding: 171 171 107
Width: 487
Flags: W
LayerCount: 2
Fore
SplineSet
305 259 m 1,0,-1
 442 57 l 1,1,-1
 353 57 l 1,2,-1
 223 259 l 1,3,-1
 353 461 l 1,4,-1
 442 461 l 1,5,-1
 305 259 l 1,0,-1
121 259 m 1,6,-1
 258 57 l 1,7,-1
 169 57 l 1,8,-1
 39 259 l 1,9,-1
 169 461 l 1,10,-1
 258 461 l 1,11,-1
 121 259 l 1,6,-1
EndSplineSet
EndChar

StartChar: logicalnot
Encoding: 172 172 108
Width: 593
Flags: W
LayerCount: 2
Fore
SplineSet
62 389 m 1,0,-1
 529 389 l 1,1,-1
 529 186 l 1,2,-1
 457 186 l 1,3,-1
 457 321 l 1,4,-1
 62 321 l 1,5,-1
 62 389 l 1,0,-1
EndSplineSet
EndChar

StartChar: registered
Encoding: 174 174 109
Width: 779
Flags: W
LayerCount: 2
Fore
SplineSet
558 407 m 0,0,1
 558 373 558 373 538 346.5 c 128,-1,2
 518 320 518 320 483 309 c 1,3,4
 538 293 538 293 550 219 c 0,5,6
 553 200 553 200 553 185 c 2,7,-1
 553 138 l 1,8,-1
 484 138 l 1,9,-1
 484 176 l 2,10,11
 484 219 484 219 475 238 c 0,12,13
 456 278 456 278 407 278 c 2,14,-1
 310 278 l 1,15,-1
 310 138 l 1,16,-1
 240 138 l 1,17,-1
 240 520 l 1,18,-1
 402 520 l 2,19,20
 483 520 483 520 520.5 489 c 128,-1,21
 558 458 558 458 558 407 c 0,0,1
397 338 m 2,22,23
 439 338 439 338 464 354 c 128,-1,24
 489 370 489 370 489 399 c 128,-1,25
 489 428 489 428 469 444.5 c 128,-1,26
 449 461 449 461 395 461 c 2,27,-1
 310 461 l 1,28,-1
 310 338 l 1,29,-1
 397 338 l 2,22,23
389 672 m 256,30,31
 460 672 460 672 522.5 645 c 128,-1,32
 585 618 585 618 631.5 571.5 c 128,-1,33
 678 525 678 525 705 462.5 c 128,-1,34
 732 400 732 400 732 329 c 256,35,36
 732 258 732 258 705 196 c 128,-1,37
 678 134 678 134 631.5 87.5 c 128,-1,38
 585 41 585 41 522.5 14 c 128,-1,39
 460 -13 460 -13 389 -13 c 256,40,41
 318 -13 318 -13 256 14 c 128,-1,42
 194 41 194 41 147.5 87.5 c 128,-1,43
 101 134 101 134 74 196 c 128,-1,44
 47 258 47 258 47 329 c 256,45,46
 47 400 47 400 74 462.5 c 128,-1,47
 101 525 101 525 147.5 571.5 c 128,-1,48
 194 618 194 618 256 645 c 128,-1,49
 318 672 318 672 389 672 c 256,30,31
389 36 m 0,50,51
 511 36 511 36 597 122 c 0,52,53
 637 162 637 162 660 215.5 c 128,-1,54
 683 269 683 269 683 329.5 c 128,-1,55
 683 390 683 390 660 443.5 c 128,-1,56
 637 497 637 497 597 537 c 0,57,58
 511 623 511 623 389 623 c 0,59,60
 266 623 266 623 182 537 c 0,61,62
 96 450 96 450 96 329 c 0,63,64
 96 269 96 269 119 215.5 c 128,-1,65
 142 162 142 162 182 122 c 0,66,67
 266 36 266 36 389 36 c 0,50,51
EndSplineSet
EndChar

StartChar: macron
Encoding: 175 175 110
Width: 382
Flags: W
LayerCount: 2
Fore
SplineSet
321 582 m 1,0,-1
 57 582 l 1,1,-1
 57 642 l 1,2,-1
 321 642 l 1,3,-1
 321 582 l 1,0,-1
EndSplineSet
EndChar

StartChar: degree
Encoding: 176 176 111
Width: 333
Flags: W
LayerCount: 2
Fore
SplineSet
166 667 m 0,0,1
 220 667 220 667 258.5 628.5 c 128,-1,2
 297 590 297 590 297 536 c 0,3,4
 297 484 297 484 258 444 c 0,5,6
 222 406 222 406 166 406 c 0,7,8
 112 406 112 406 74 444 c 128,-1,9
 36 482 36 482 36 536 c 0,10,11
 36 592 36 592 74 628 c 0,12,13
 114 667 114 667 166 667 c 0,0,1
114.5 484.5 m 128,-1,15
 136 463 136 463 166.5 463 c 128,-1,16
 197 463 197 463 218.5 484.5 c 128,-1,17
 240 506 240 506 240 536.5 c 128,-1,18
 240 567 240 567 218.5 588.5 c 128,-1,19
 197 610 197 610 166.5 610 c 128,-1,20
 136 610 136 610 114.5 588.5 c 128,-1,21
 93 567 93 567 93 536.5 c 128,-1,14
 93 506 93 506 114.5 484.5 c 128,-1,15
EndSplineSet
EndChar

StartChar: plusminus
Encoding: 177 177 112
Width: 550
Flags: W
LayerCount: 2
Fore
SplineSet
500 276 m 1,0,-1
 307 276 l 1,1,-1
 307 122 l 1,2,-1
 242 122 l 1,3,-1
 242 276 l 1,4,-1
 50 276 l 1,5,-1
 50 341 l 1,6,-1
 242 341 l 1,7,-1
 242 495 l 1,8,-1
 307 495 l 1,9,-1
 307 341 l 1,10,-1
 500 341 l 1,11,-1
 500 276 l 1,0,-1
500 0 m 1,12,-1
 50 0 l 1,13,-1
 50 62 l 1,14,-1
 500 62 l 1,15,-1
 500 0 l 1,12,-1
EndSplineSet
EndChar

StartChar: twosuperior
Encoding: 178 178 113
Width: 354
Flags: W
LayerCount: 2
Fore
SplineSet
301 556 m 0,0,1
 301 487 301 487 221 434 c 0,2,3
 199 420 199 420 178 406 c 0,4,5
 128 373 128 373 116 352 c 1,6,-1
 301 352 l 1,7,-1
 301 300 l 1,8,-1
 52 300 l 1,9,-1
 52 329 l 2,10,11
 52 389 52 389 149 451 c 0,12,13
 207 488 207 488 226.5 511 c 128,-1,14
 246 534 246 534 246 558 c 128,-1,15
 246 582 246 582 227 597 c 128,-1,16
 208 612 208 612 178 612 c 128,-1,17
 148 612 148 612 127.5 593.5 c 128,-1,18
 107 575 107 575 102 548 c 1,19,-1
 46 548 l 1,20,21
 53 598 53 598 88.5 631.5 c 128,-1,22
 124 665 124 665 179.5 665 c 128,-1,23
 235 665 235 665 268 634 c 128,-1,24
 301 603 301 603 301 556 c 0,0,1
EndSplineSet
EndChar

StartChar: threesuperior
Encoding: 179 179 114
Width: 335
Flags: W
LayerCount: 2
Fore
SplineSet
233 492 m 1,0,1
 265 478 265 478 280 456.5 c 128,-1,2
 295 435 295 435 295 405 c 128,-1,3
 295 375 295 375 284.5 356 c 128,-1,4
 274 337 274 337 256 324 c 1,5,6
 221 296 221 296 170 296 c 0,7,8
 118 296 118 296 80 328 c 0,9,10
 42 361 42 361 38 407 c 1,11,-1
 93 407 l 1,12,13
 98 383 98 383 119.5 365 c 128,-1,14
 141 347 141 347 172 347 c 128,-1,15
 203 347 203 347 221.5 365 c 128,-1,16
 240 383 240 383 240 406 c 256,17,18
 240 429 240 429 223.5 448 c 128,-1,19
 207 467 207 467 173 467 c 2,20,-1
 126 467 l 1,21,-1
 126 514 l 1,22,-1
 169 514 l 2,23,24
 193 514 193 514 211 528 c 128,-1,25
 229 542 229 542 229 563.5 c 128,-1,26
 229 585 229 585 213.5 599.5 c 128,-1,27
 198 614 198 614 168.5 614 c 128,-1,28
 139 614 139 614 122 598.5 c 128,-1,29
 105 583 105 583 101 563 c 1,30,-1
 47 563 l 1,31,32
 51 604 51 604 82 634 c 0,33,34
 116 666 116 666 166.5 666 c 128,-1,35
 217 666 217 666 250.5 642.5 c 128,-1,36
 284 619 284 619 284 578 c 0,37,38
 284 516 284 516 233 492 c 1,0,1
EndSplineSet
EndChar

StartChar: acute
Encoding: 180 180 115
Width: 349
Flags: W
LayerCount: 2
Fore
SplineSet
147 675 m 1,0,-1
 254 675 l 1,1,-1
 147 570 l 1,2,-1
 86 570 l 1,3,-1
 147 675 l 1,0,-1
EndSplineSet
EndChar

StartChar: mu
Encoding: 181 181 116
Width: 564
Flags: W
LayerCount: 2
Fore
SplineSet
276 -8 m 0,0,1
 197 -8 197 -8 147 46 c 1,2,-1
 147 -198 l 1,3,-1
 72 -198 l 1,4,-1
 72 500 l 1,5,-1
 147 500 l 1,6,-1
 147 211 l 2,7,8
 147 142 147 142 186 101 c 128,-1,9
 225 60 225 60 287 60 c 0,10,11
 350 60 350 60 394 102 c 0,12,13
 438 145 438 145 438 212 c 2,14,-1
 438 500 l 1,15,-1
 513 500 l 1,16,-1
 513 0 l 1,17,-1
 438 0 l 1,18,-1
 438 78 l 1,19,20
 411 42 411 42 374 17 c 128,-1,21
 337 -8 337 -8 276 -8 c 0,0,1
EndSplineSet
EndChar

StartChar: paragraph
Encoding: 182 182 117
Width: 565
Flags: W
LayerCount: 2
Fore
SplineSet
509 616 m 1,0,-1
 466 616 l 1,1,-1
 466 -141 l 1,2,-1
 407 -141 l 1,3,-1
 407 616 l 1,4,-1
 335 616 l 1,5,-1
 335 -141 l 1,6,-1
 276 -141 l 1,7,-1
 276 335 l 1,8,-1
 203 335 l 2,9,10
 133 335 133 335 84.5 383.5 c 128,-1,11
 36 432 36 432 36 502 c 0,12,13
 36 571 36 571 84 621 c 0,14,15
 132 670 132 670 203 670 c 2,16,-1
 509 670 l 1,17,-1
 509 616 l 1,0,-1
EndSplineSet
EndChar

StartChar: periodcentered
Encoding: 183 183 118
Width: 203
Flags: W
LayerCount: 2
Fore
SplineSet
150 344 m 1,0,-1
 150 242 l 1,1,-1
 53 242 l 1,2,-1
 53 344 l 1,3,-1
 150 344 l 1,0,-1
EndSplineSet
EndChar

StartChar: cedilla
Encoding: 184 184 119
Width: 300
Flags: W
LayerCount: 2
Fore
SplineSet
151 -54 m 1,0,1
 161 -52 161 -52 173 -52 c 0,2,3
 211 -52 211 -52 238 -72.5 c 128,-1,4
 265 -93 265 -93 265 -129 c 0,5,6
 265 -188 265 -188 194 -205 c 0,7,8
 174 -210 174 -210 143.5 -210 c 128,-1,9
 113 -210 113 -210 82.5 -197.5 c 128,-1,10
 52 -185 52 -185 33 -169 c 1,11,-1
 52 -136 l 1,12,13
 96 -166 96 -166 137 -166 c 0,14,15
 192 -166 192 -166 192 -130 c 0,16,17
 192 -115 192 -115 176 -106 c 128,-1,18
 160 -97 160 -97 140.5 -97 c 128,-1,19
 121 -97 121 -97 104 -102 c 1,20,-1
 83 -85 l 1,21,-1
 152 23 l 1,22,-1
 195 23 l 1,23,-1
 151 -54 l 1,0,1
EndSplineSet
EndChar

StartChar: onesuperior
Encoding: 185 185 120
Width: 212
Flags: W
LayerCount: 2
Fore
SplineSet
154 662 m 1,0,-1
 154 301 l 1,1,-1
 99 301 l 1,2,-1
 99 610 l 1,3,-1
 26 610 l 1,4,-1
 26 662 l 1,5,-1
 154 662 l 1,0,-1
EndSplineSet
EndChar

StartChar: ordmasculine
Encoding: 186 186 121
Width: 342
Flags: W
LayerCount: 2
Fore
SplineSet
171 666 m 256,0,1
 231 666 231 666 268 626 c 1,2,3
 305 588 305 588 305 529 c 256,4,5
 305 470 305 470 268 432 c 1,6,7
 231 392 231 392 171 392 c 256,8,9
 111 392 111 392 74 432 c 1,10,11
 37 470 37 470 37 529 c 256,12,13
 37 588 37 588 74 626 c 1,14,15
 111 666 111 666 171 666 c 256,0,1
171 440 m 256,16,17
 212 440 212 440 232.5 466.5 c 128,-1,18
 253 493 253 493 253 528.5 c 128,-1,19
 253 564 253 564 232.5 591 c 128,-1,20
 212 618 212 618 171 618 c 256,21,22
 130 618 130 618 109.5 591 c 128,-1,23
 89 564 89 564 89 528.5 c 128,-1,24
 89 493 89 493 109.5 466.5 c 128,-1,25
 130 440 130 440 171 440 c 256,16,17
EndSplineSet
EndChar

StartChar: guillemotright
Encoding: 187 187 122
Width: 487
Flags: W
LayerCount: 2
Fore
SplineSet
45 461 m 1,0,-1
 134 461 l 1,1,-1
 264 259 l 1,2,-1
 134 57 l 1,3,-1
 45 57 l 1,4,-1
 182 259 l 1,5,-1
 45 461 l 1,0,-1
229 461 m 1,6,-1
 318 461 l 1,7,-1
 448 259 l 1,8,-1
 318 57 l 1,9,-1
 229 57 l 1,10,-1
 366 259 l 1,11,-1
 229 461 l 1,6,-1
EndSplineSet
EndChar

StartChar: onequarter
Encoding: 188 188 123
Width: 713
Flags: W
LayerCount: 2
Fore
SplineSet
670 137 m 1,0,-1
 670 88 l 1,1,-1
 624 88 l 1,2,-1
 624 0 l 1,3,-1
 569 0 l 1,4,-1
 569 88 l 1,5,-1
 404 88 l 1,6,-1
 404 137 l 1,7,-1
 553 361 l 1,8,-1
 624 361 l 1,9,-1
 624 137 l 1,10,-1
 670 137 l 1,0,-1
569 301 m 1,11,-1
 460 137 l 1,12,-1
 569 137 l 1,13,-1
 569 301 l 1,11,-1
167 662 m 1,14,-1
 167 301 l 1,15,-1
 112 301 l 1,16,-1
 112 610 l 1,17,-1
 39 610 l 1,18,-1
 39 662 l 1,19,-1
 167 662 l 1,14,-1
98 -14 m 1,20,-1
 518 674 l 1,21,-1
 582 674 l 1,22,-1
 162 -14 l 1,23,-1
 98 -14 l 1,20,-1
EndSplineSet
EndChar

StartChar: threequarters
Encoding: 190 190 125
Width: 785
Flags: W
LayerCount: 2
Fore
SplineSet
744 137 m 1,0,-1
 744 88 l 1,1,-1
 698 88 l 1,2,-1
 698 0 l 1,3,-1
 643 0 l 1,4,-1
 643 88 l 1,5,-1
 478 88 l 1,6,-1
 478 137 l 1,7,-1
 627 361 l 1,8,-1
 698 361 l 1,9,-1
 698 137 l 1,10,-1
 744 137 l 1,0,-1
643 301 m 1,11,-1
 534 137 l 1,12,-1
 643 137 l 1,13,-1
 643 301 l 1,11,-1
172 -14 m 1,14,-1
 592 674 l 1,15,-1
 656 674 l 1,16,-1
 236 -14 l 1,17,-1
 172 -14 l 1,14,-1
238 492 m 1,18,19
 270 478 270 478 285 456.5 c 128,-1,20
 300 435 300 435 300 405 c 128,-1,21
 300 375 300 375 289.5 356 c 128,-1,22
 279 337 279 337 262 324 c 0,23,24
 226 296 226 296 175 296 c 0,25,26
 123 296 123 296 86 328 c 0,27,28
 47 361 47 361 43 407 c 1,29,-1
 98 407 l 1,30,31
 103 383 103 383 124.5 365 c 128,-1,32
 146 347 146 347 177 347 c 128,-1,33
 208 347 208 347 226.5 365 c 128,-1,34
 245 383 245 383 245 406 c 256,35,36
 245 429 245 429 228.5 448 c 128,-1,37
 212 467 212 467 178 467 c 2,38,-1
 131 467 l 1,39,-1
 131 514 l 1,40,-1
 174 514 l 2,41,42
 198 514 198 514 216 528 c 128,-1,43
 234 542 234 542 234 563.5 c 128,-1,44
 234 585 234 585 218.5 599.5 c 128,-1,45
 203 614 203 614 173.5 614 c 128,-1,46
 144 614 144 614 127 598.5 c 128,-1,47
 110 583 110 583 106 563 c 1,48,-1
 52 563 l 1,49,50
 56 604 56 604 87 634 c 0,51,52
 121 666 121 666 171.5 666 c 128,-1,53
 222 666 222 666 255.5 642.5 c 128,-1,54
 289 619 289 619 289 578 c 0,55,56
 289 516 289 516 238 492 c 1,18,19
EndSplineSet
EndChar

StartChar: Aring
Encoding: 197 197 132
Width: 662
Flags: W
LayerCount: 2
Fore
SplineSet
279 651 m 1,0,1
 241 678 241 678 241 720 c 128,-1,2
 241 762 241 762 267 788 c 128,-1,3
 293 814 293 814 330 814 c 256,4,5
 367 814 367 814 394 788 c 0,6,7
 421 763 421 763 421 720 c 128,-1,8
 421 677 421 677 382 651 c 1,9,-1
 659 0 l 1,10,-1
 576 0 l 1,11,-1
 495 192 l 1,12,-1
 167 192 l 1,13,-1
 86 0 l 1,14,-1
 3 0 l 1,15,-1
 279 651 l 1,0,1
466 261 m 1,16,-1
 331 584 l 1,17,-1
 196 261 l 1,18,-1
 466 261 l 1,16,-1
300 693 m 128,-1,20
 313 680 313 680 331 680 c 128,-1,21
 349 680 349 680 362 693 c 128,-1,22
 375 706 375 706 375 724.5 c 128,-1,23
 375 743 375 743 362 756 c 128,-1,24
 349 769 349 769 331 769 c 128,-1,25
 313 769 313 769 300 756 c 128,-1,26
 287 743 287 743 287 724.5 c 128,-1,19
 287 706 287 706 300 693 c 128,-1,20
EndSplineSet
EndChar

StartChar: AE
Encoding: 198 198 133
Width: 1022
Flags: W
LayerCount: 2
Fore
SplineSet
983 662 m 1,0,-1
 983 590 l 1,1,-1
 596 590 l 1,2,-1
 596 368 l 1,3,-1
 939 368 l 1,4,-1
 939 295 l 1,5,-1
 596 295 l 1,6,-1
 596 72 l 1,7,-1
 983 72 l 1,8,-1
 983 0 l 1,9,-1
 521 0 l 1,10,-1
 521 185 l 1,11,-1
 212 185 l 1,12,-1
 87 0 l 1,13,-1
 -3 0 l 1,14,-1
 450 662 l 1,15,-1
 983 662 l 1,0,-1
521 590 m 1,16,-1
 487 590 l 1,17,-1
 259 254 l 1,18,-1
 521 254 l 1,19,-1
 521 590 l 1,16,-1
EndSplineSet
EndChar

StartChar: Ccedilla
Encoding: 199 199 134
Width: 690
Flags: W
LayerCount: 2
Fore
SplineSet
349 -54 m 1,0,1
 359 -52 359 -52 371 -52 c 0,2,3
 409 -52 409 -52 436 -72.5 c 128,-1,4
 463 -93 463 -93 463 -129 c 0,5,6
 463 -188 463 -188 392 -205 c 0,7,8
 372 -210 372 -210 341.5 -210 c 128,-1,9
 311 -210 311 -210 280.5 -197.5 c 128,-1,10
 250 -185 250 -185 231 -169 c 1,11,-1
 250 -136 l 1,12,13
 294 -166 294 -166 335 -166 c 0,14,15
 390 -166 390 -166 390 -130 c 0,16,17
 390 -115 390 -115 374 -106 c 128,-1,18
 358 -97 358 -97 338.5 -97 c 128,-1,19
 319 -97 319 -97 302 -102 c 1,20,-1
 281 -85 l 1,21,-1
 331 -7 l 1,22,23
 196 3 196 3 116 100 c 0,24,25
 39 194 39 194 39 331 c 0,26,27
 39 476 39 476 124 571 c 1,28,29
 214 670 214 670 359 670 c 0,30,31
 469 670 469 670 550 612 c 0,32,33
 626 558 626 558 659 464 c 1,34,-1
 580 464 l 1,35,36
 554 525 554 525 500.5 561 c 128,-1,37
 447 597 447 597 376 597 c 128,-1,38
 305 597 305 597 258 576.5 c 128,-1,39
 211 556 211 556 179 520 c 0,40,41
 114 447 114 447 114 331 c 256,42,43
 114 215 114 215 179 142 c 0,44,45
 247 65 247 65 365 65 c 0,46,47
 447 65 447 65 500.5 101 c 128,-1,48
 554 137 554 137 580 198 c 1,49,-1
 659 198 l 1,50,51
 628 110 628 110 555 53.5 c 128,-1,52
 482 -3 482 -3 375 -8 c 1,53,-1
 349 -54 l 1,0,1
EndSplineSet
EndChar

StartChar: Eth
Encoding: 208 208 143
Width: 712
Flags: W
LayerCount: 2
Fore
SplineSet
368 662 m 2,0,1
 427 662 427 662 482 639.5 c 128,-1,2
 537 617 537 617 579 574 c 0,3,4
 672 479 672 479 672 331 c 256,5,6
 672 183 672 183 579 88 c 0,7,8
 537 45 537 45 482 22.5 c 128,-1,9
 427 0 427 0 368 0 c 2,10,-1
 89 0 l 1,11,-1
 89 298 l 1,12,-1
 7 298 l 1,13,-1
 7 363 l 1,14,-1
 89 363 l 1,15,-1
 89 662 l 1,16,-1
 368 662 l 2,0,1
365 71 m 2,17,18
 469 71 469 71 534 148 c 0,19,20
 597 222 597 222 597 331 c 256,21,22
 597 440 597 440 534 514 c 0,23,24
 469 591 469 591 365 591 c 2,25,-1
 164 591 l 1,26,-1
 164 363 l 1,27,-1
 355 363 l 1,28,-1
 355 298 l 1,29,-1
 164 298 l 1,30,-1
 164 71 l 1,31,-1
 365 71 l 2,17,18
EndSplineSet
EndChar

StartChar: multiply
Encoding: 215 215 150
Width: 550
Flags: W
LayerCount: 2
Fore
SplineSet
325 257 m 1,0,-1
 478 104 l 1,1,-1
 429 54 l 1,2,-1
 275 208 l 1,3,-1
 122 54 l 1,4,-1
 72 104 l 1,5,-1
 226 257 l 1,6,-1
 72 411 l 1,7,-1
 122 460 l 1,8,-1
 275 307 l 1,9,-1
 429 460 l 1,10,-1
 478 411 l 1,11,-1
 325 257 l 1,0,-1
EndSplineSet
EndChar

StartChar: Oslash
Encoding: 216 216 151
Width: 750
Flags: W
LayerCount: 2
Fore
SplineSet
375 670 m 0,0,1
 496 670 496 670 585 602 c 1,2,-1
 652 680 l 1,3,-1
 684 652 l 1,4,-1
 616 574 l 1,5,6
 711 479 711 479 711 331 c 0,7,8
 711 187 711 187 618 91 c 0,9,10
 523 -8 523 -8 375 -8 c 0,11,12
 257 -8 257 -8 166 61 c 1,13,-1
 98 -17 l 1,14,-1
 67 11 l 1,15,-1
 135 88 l 1,16,17
 39 186 39 186 39 331 c 0,18,19
 39 475 39 475 132 571 c 0,20,21
 227 670 227 670 375 670 c 0,0,1
536 547 m 1,22,23
 469 597 469 597 375 597 c 0,24,25
 257 597 257 597 184 520 c 0,26,27
 114 446 114 446 114 331 c 0,28,29
 114 217 114 217 183 144 c 1,30,-1
 536 547 l 1,22,23
214 116 m 1,31,32
 282 65 282 65 375 65 c 0,33,34
 493 65 493 65 566 142 c 0,35,36
 636 216 636 216 636 331 c 0,37,38
 636 445 636 445 568 519 c 1,39,-1
 214 116 l 1,31,32
EndSplineSet
EndChar

StartChar: Thorn
Encoding: 222 222 157
Width: 627
Flags: W
LayerCount: 2
Fore
SplineSet
156 0 m 1,0,-1
 81 0 l 1,1,-1
 81 662 l 1,2,-1
 156 662 l 1,3,-1
 156 565 l 1,4,-1
 379 565 l 2,5,6
 484 565 484 565 546 507 c 0,7,8
 607 449 607 449 607 352 c 0,9,10
 607 254 607 254 545.5 196.5 c 128,-1,11
 484 139 484 139 379 139 c 2,12,-1
 156 139 l 1,13,-1
 156 0 l 1,0,-1
156 494 m 1,14,-1
 156 209 l 1,15,-1
 374 209 l 2,16,17
 452 209 452 209 492 247 c 128,-1,18
 532 285 532 285 532 351.5 c 128,-1,19
 532 418 532 418 492 456 c 128,-1,20
 452 494 452 494 374 494 c 2,21,-1
 156 494 l 1,14,-1
EndSplineSet
EndChar

StartChar: germandbls
Encoding: 223 223 158
Width: 557
Flags: W
LayerCount: 2
Fore
SplineSet
489 488 m 0,0,1
 489 371 489 371 381 337 c 1,2,3
 472 316 472 316 509 237 c 0,4,5
 523 207 523 207 523 165 c 0,6,7
 523 85 523 85 461.5 42.5 c 128,-1,8
 400 0 400 0 293 0 c 2,9,-1
 205 0 l 1,10,-1
 205 66 l 1,11,-1
 294 66 l 2,12,13
 363 66 363 66 405 92.5 c 128,-1,14
 447 119 447 119 447 176 c 256,15,16
 447 233 447 233 397 268.5 c 128,-1,17
 347 304 347 304 253 304 c 1,18,-1
 253 359 l 1,19,20
 322 359 322 359 367 390 c 1,21,22
 414 424 414 424 414 478.5 c 128,-1,23
 414 533 414 533 380.5 568 c 128,-1,24
 347 603 347 603 278 603 c 0,25,26
 179 603 179 603 150 540 c 0,27,28
 140 516 140 516 140 480 c 2,29,-1
 140 0 l 1,30,-1
 65 0 l 1,31,-1
 65 484 l 2,32,33
 65 571 65 571 121.5 620.5 c 128,-1,34
 178 670 178 670 279 670 c 0,35,36
 368 670 368 670 425 627 c 0,37,38
 489 578 489 578 489 488 c 0,0,1
EndSplineSet
EndChar

StartChar: ae
Encoding: 230 230 165
Width: 977
Flags: W
LayerCount: 2
Fore
SplineSet
530 428 m 1,0,1
 588 508 588 508 702 508 c 0,2,3
 814 508 814 508 884 433 c 0,4,5
 950 361 950 361 950 250 c 2,6,-1
 950 220 l 1,7,-1
 531 220 l 1,8,9
 540 149 540 149 584 106 c 1,10,11
 633 60 633 60 708 60 c 0,12,13
 764 60 764 60 800.5 87 c 128,-1,14
 837 114 837 114 857 157 c 1,15,-1
 937 157 l 1,16,17
 913 84 913 84 851.5 38 c 128,-1,18
 790 -8 790 -8 702 -8 c 0,19,20
 588 -8 588 -8 530 71 c 1,21,-1
 530 0 l 1,22,-1
 455 0 l 1,23,-1
 455 80 l 1,24,25
 395 -8 395 -8 276 -8 c 0,26,27
 168 -8 168 -8 100 67 c 0,28,29
 34 141 34 141 34 250 c 256,30,31
 34 359 34 359 100 433 c 0,32,33
 168 508 168 508 281 508 c 128,-1,34
 394 508 394 508 455 419 c 1,35,-1
 455 500 l 1,36,-1
 530 500 l 1,37,-1
 530 428 l 1,0,1
286 60 m 0,38,39
 367 60 367 60 414 116 c 0,40,41
 459 169 459 169 459 250 c 256,42,43
 459 331 459 331 414 384 c 0,44,45
 367 440 367 440 286 440 c 0,46,47
 206 440 206 440 156 384 c 0,48,49
 109 331 109 331 109 250 c 256,50,51
 109 169 109 169 156 116 c 0,52,53
 206 60 206 60 286 60 c 0,38,39
872 290 m 1,54,55
 862 356 862 356 818 397 c 0,56,57
 771 440 771 440 702 440 c 256,58,59
 633 440 633 440 586 397 c 0,60,61
 542 356 542 356 532 290 c 1,62,-1
 872 290 l 1,54,55
EndSplineSet
EndChar

StartChar: ccedilla
Encoding: 231 231 166
Width: 544
Flags: W
LayerCount: 2
Fore
SplineSet
273 -54 m 1,0,1
 283 -52 283 -52 295 -52 c 0,2,3
 333 -52 333 -52 360 -72.5 c 128,-1,4
 387 -93 387 -93 387 -129 c 0,5,6
 387 -188 387 -188 316 -205 c 0,7,8
 296 -210 296 -210 265.5 -210 c 128,-1,9
 235 -210 235 -210 204.5 -197.5 c 128,-1,10
 174 -185 174 -185 155 -169 c 1,11,-1
 174 -136 l 1,12,13
 218 -166 218 -166 259 -166 c 0,14,15
 314 -166 314 -166 314 -130 c 0,16,17
 314 -115 314 -115 298 -106 c 128,-1,18
 282 -97 282 -97 262.5 -97 c 128,-1,19
 243 -97 243 -97 226 -102 c 1,20,-1
 205 -85 l 1,21,-1
 255 -6 l 1,22,23
 154 2 154 2 94 76 c 1,24,25
 34 148 34 148 34 250 c 0,26,27
 34 360 34 360 101 433 c 0,28,29
 170 508 170 508 280 508 c 0,30,31
 368 508 368 508 432 462 c 0,32,33
 493 417 493 417 516 343 c 1,34,-1
 435 343 l 1,35,36
 418 386 418 386 381 413 c 128,-1,37
 344 440 344 440 296 440 c 128,-1,38
 248 440 248 440 214.5 425 c 128,-1,39
 181 410 181 410 158 384 c 0,40,41
 109 330 109 330 109 250 c 256,42,43
 109 170 109 170 158 116 c 0,44,45
 208 60 208 60 290 60 c 0,46,47
 344 60 344 60 381 87 c 128,-1,48
 418 114 418 114 435 157 c 1,49,-1
 516 157 l 1,50,51
 495 88 495 88 438 43 c 128,-1,52
 381 -2 381 -2 299 -7 c 1,53,-1
 273 -54 l 1,0,1
EndSplineSet
EndChar

StartChar: eth
Encoding: 240 240 175
Width: 573
Flags: W
LayerCount: 2
Fore
SplineSet
342 625 m 1,0,1
 433 552 433 552 476 480 c 0,2,3
 530 388 530 388 530 269 c 0,4,5
 530 156 530 156 466 78 c 0,6,7
 396 -8 396 -8 286 -8 c 0,8,9
 168 -8 168 -8 98 70 c 0,10,11
 34 140 34 140 34 253 c 0,12,13
 34 363 34 363 96 438 c 0,14,15
 159 514 159 514 263 514 c 0,16,17
 354 514 354 514 409 455 c 1,18,19
 380 511 380 511 313 558 c 0,20,21
 295 570 295 570 278 582 c 1,22,-1
 222 545 l 1,23,-1
 190 583 l 1,24,-1
 233 611 l 1,25,26
 200 630 200 630 169 644 c 1,27,-1
 196 715 l 1,28,29
 249 690 249 690 300 656 c 1,30,-1
 375 706 l 1,31,-1
 407 668 l 1,32,-1
 342 625 l 1,0,1
282 59 m 256,33,34
 362 59 362 59 410 118 c 0,35,36
 455 173 455 173 455 253 c 0,37,38
 455 332 455 332 406 388 c 0,39,40
 355 447 355 447 274 447 c 0,41,42
 197 447 197 447 151 390 c 1,43,44
 109 336 109 336 109 253 c 0,45,46
 109 173 109 173 154 118 c 0,47,48
 202 59 202 59 282 59 c 256,33,34
EndSplineSet
EndChar

StartChar: divide
Encoding: 247 247 182
Width: 550
Flags: W
LayerCount: 2
Fore
SplineSet
512 269 m 1,0,-1
 512 200 l 1,1,-1
 38 200 l 1,2,-1
 38 269 l 1,3,-1
 512 269 l 1,0,-1
231 110 m 1,4,-1
 319 110 l 1,5,-1
 319 17 l 1,6,-1
 231 17 l 1,7,-1
 231 110 l 1,4,-1
231 452 m 1,8,-1
 319 452 l 1,9,-1
 319 359 l 1,10,-1
 231 359 l 1,11,-1
 231 452 l 1,8,-1
EndSplineSet
EndChar

StartChar: oslash
Encoding: 248 248 183
Width: 564
Flags: W
LayerCount: 2
Fore
SplineSet
282 508 m 0,0,1
 374 508 374 508 439 456 c 1,2,-1
 493 516 l 1,3,-1
 519 493 l 1,4,-1
 465 431 l 1,5,6
 530 360 530 360 530 250 c 0,7,8
 530 139 530 139 464 67 c 0,9,10
 394 -8 394 -8 282 -8 c 0,11,12
 188 -8 188 -8 126 44 c 1,13,-1
 72 -17 l 1,14,-1
 46 6 l 1,15,-1
 100 68 l 1,16,17
 34 140 34 140 34 250 c 0,18,19
 34 361 34 361 100 433 c 0,20,21
 170 508 170 508 282 508 c 0,0,1
392 402 m 1,22,23
 348 440 348 440 282 440 c 0,24,25
 201 440 201 440 154 384 c 0,26,27
 109 331 109 331 109 250 c 0,28,29
 109 175 109 175 149 123 c 1,30,-1
 392 402 l 1,22,23
416 376 m 1,31,-1
 173 98 l 1,32,33
 217 60 217 60 290 60 c 128,-1,34
 363 60 363 60 409 114.5 c 128,-1,35
 455 169 455 169 455 247 c 128,-1,36
 455 325 455 325 416 376 c 1,31,-1
EndSplineSet
EndChar

StartChar: thorn
Encoding: 254 254 189
Width: 594
Flags: W
LayerCount: 2
Fore
SplineSet
140 419 m 1,0,1
 201 508 201 508 319 508 c 0,2,3
 427 508 427 508 494 433 c 0,4,5
 561 359 561 359 561 250 c 256,6,7
 561 141 561 141 494 67 c 0,8,9
 427 -8 427 -8 313.5 -8 c 128,-1,10
 200 -8 200 -8 140 80 c 1,11,-1
 140 -198 l 1,12,-1
 65 -198 l 1,13,-1
 65 700 l 1,14,-1
 140 700 l 1,15,-1
 140 419 l 1,0,1
309 60 m 0,16,17
 389 60 389 60 439 116 c 0,18,19
 486 169 486 169 486 250 c 256,20,21
 486 331 486 331 439 384 c 0,22,23
 389 440 389 440 309 440 c 0,24,25
 228 440 228 440 181 384 c 0,26,27
 136 331 136 331 136 250 c 256,28,29
 136 169 136 169 181 116 c 0,30,31
 228 60 228 60 309 60 c 0,16,17
EndSplineSet
EndChar

StartChar: dotlessi
Encoding: 305 305 191
Width: 205
Flags: W
LayerCount: 2
Fore
SplineSet
65 500 m 1,0,-1
 140 500 l 1,1,-1
 140 0 l 1,2,-1
 65 0 l 1,3,-1
 65 500 l 1,0,-1
EndSplineSet
EndChar

StartChar: OE
Encoding: 338 338 192
Width: 1144
Flags: W
LayerCount: 2
Fore
SplineSet
612 553 m 1,0,-1
 612 662 l 1,1,-1
 1104 662 l 1,2,-1
 1104 590 l 1,3,-1
 687 590 l 1,4,-1
 687 367 l 1,5,-1
 1060 367 l 1,6,-1
 1060 294 l 1,7,-1
 687 294 l 1,8,-1
 687 72 l 1,9,-1
 1104 72 l 1,10,-1
 1104 0 l 1,11,-1
 612 0 l 1,12,-1
 612 108 l 1,13,14
 524 -8 524 -8 365 -8 c 0,15,16
 218 -8 218 -8 126 91 c 0,17,18
 39 186 39 186 39 331 c 128,-1,19
 39 476 39 476 126 571 c 0,20,21
 218 670 218 670 370.5 670 c 128,-1,22
 523 670 523 670 612 553 c 1,0,-1
365 65 m 256,23,24
 483 65 483 65 551 142 c 0,25,26
 616 215 616 215 616 331 c 256,27,28
 616 447 616 447 551 520 c 0,29,30
 483 597 483 597 365 597 c 256,31,32
 247 597 247 597 179 520 c 0,33,34
 114 447 114 447 114 331 c 256,35,36
 114 215 114 215 179 142 c 0,37,38
 247 65 247 65 365 65 c 256,23,24
EndSplineSet
EndChar

StartChar: oe
Encoding: 339 339 193
Width: 972
Flags: W
LayerCount: 2
Fore
SplineSet
570 474.5 m 128,-1,1
 622 508 622 508 688 508 c 128,-1,2
 754 508 754 508 800 488 c 128,-1,3
 846 468 846 468 878 433 c 0,4,5
 945 361 945 361 945 250 c 2,6,-1
 945 220 l 1,7,-1
 526 220 l 1,8,9
 535 149 535 149 580 106 c 0,10,11
 628 60 628 60 703 60 c 0,12,13
 759 60 759 60 795.5 87 c 128,-1,14
 832 114 832 114 852 157 c 1,15,-1
 932 157 l 1,16,17
 908 84 908 84 846.5 38 c 128,-1,18
 785 -8 785 -8 704 -8 c 0,19,20
 553 -8 553 -8 489 113 c 1,21,22
 461 58 461 58 409 25 c 128,-1,23
 357 -8 357 -8 291 -8 c 128,-1,24
 225 -8 225 -8 179 12 c 128,-1,25
 133 32 133 32 100 67 c 0,26,27
 34 139 34 139 34 250 c 256,28,29
 34 361 34 361 100 433 c 0,30,31
 170 508 170 508 282 508 c 0,32,33
 357 508 357 508 409 474.5 c 128,-1,34
 461 441 461 441 489 386 c 1,35,0
 518 441 518 441 570 474.5 c 128,-1,1
282 60 m 256,36,37
 363 60 363 60 410 116 c 0,38,39
 455 169 455 169 455 250 c 256,40,41
 455 331 455 331 410 384 c 0,42,43
 363 440 363 440 282 440 c 256,44,45
 201 440 201 440 154 384 c 0,46,47
 109 331 109 331 109 250 c 256,48,49
 109 169 109 169 154 116 c 0,50,51
 201 60 201 60 282 60 c 256,36,37
867 290 m 1,52,53
 857 356 857 356 812 397 c 0,54,55
 766 440 766 440 697 440 c 256,56,57
 628 440 628 440 582 397 c 0,58,59
 537 356 537 356 527 290 c 1,60,-1
 867 290 l 1,52,53
EndSplineSet
EndChar

StartChar: longs
Encoding: 383 383 195
Width: 239
Flags: W
LayerCount: 2
Fore
SplineSet
280 637 m 2,0,1
 227 637 227 637 200.5 613.5 c 128,-1,2
 174 590 174 590 174 538 c 2,3,-1
 174 0 l 1,4,-1
 99 0 l 1,5,-1
 99 434 l 1,6,-1
 13 434 l 1,7,-1
 13 500 l 1,8,-1
 99 500 l 1,9,-1
 99 544 l 2,10,11
 99 626 99 626 148 667 c 128,-1,12
 197 708 197 708 284 708 c 2,13,-1
 290 708 l 1,14,-1
 290 637 l 1,15,-1
 280 637 l 2,0,1
EndSplineSet
EndChar

StartChar: florin
Encoding: 402 402 196
Width: 332
Flags: W
LayerCount: 2
Fore
SplineSet
364 708 m 1,0,-1
 352 637 l 1,1,-1
 342 637 l 2,2,3
 290 637 290 637 259 616 c 128,-1,4
 228 595 228 595 218 538 c 2,5,-1
 197 416 l 1,6,-1
 313 416 l 1,7,-1
 313 367 l 1,8,-1
 188 367 l 1,9,-1
 123 9 l 1,10,11
 97 -141 97 -141 -73 -149 c 1,12,-1
 -62 -90 l 1,13,14
 33 -83 33 -83 47 3 c 1,15,-1
 113 367 l 1,16,-1
 27 367 l 1,17,-1
 27 416 l 1,18,-1
 122 416 l 1,19,-1
 144 544 l 2,20,21
 160 634 160 634 216 671 c 128,-1,22
 272 708 272 708 358 708 c 2,23,-1
 364 708 l 1,0,-1
EndSplineSet
EndChar

StartChar: circumflex
Encoding: 710 710 199
Width: 384
Flags: W
LayerCount: 2
Fore
SplineSet
249 570 m 1,0,-1
 190 624 l 1,1,-1
 131 570 l 1,2,-1
 49 570 l 1,3,-1
 147 675 l 1,4,-1
 234 675 l 1,5,-1
 331 570 l 1,6,-1
 249 570 l 1,0,-1
EndSplineSet
EndChar

StartChar: caron
Encoding: 711 711 200
Width: 381
Flags: W
LayerCount: 2
Fore
SplineSet
331 675 m 1,0,-1
 234 570 l 1,1,-1
 147 570 l 1,2,-1
 49 675 l 1,3,-1
 131 675 l 1,4,-1
 190 621 l 1,5,-1
 249 675 l 1,6,-1
 331 675 l 1,0,-1
EndSplineSet
EndChar

StartChar: breve
Encoding: 728 728 201
Width: 465
Flags: W
LayerCount: 2
Fore
SplineSet
338 691 m 1,0,1
 344 677 344 677 344 659.5 c 128,-1,2
 344 642 344 642 334.5 625 c 128,-1,3
 325 608 325 608 309 595 c 0,4,5
 275 567 275 567 226 567 c 0,6,7
 176 567 176 567 142 595 c 0,8,9
 107 623 107 623 107 662 c 0,10,11
 107 670 107 670 109 677 c 128,-1,12
 111 684 111 684 113 691 c 1,13,-1
 131 691 l 1,14,15
 134 662 134 662 161 644 c 128,-1,16
 188 626 188 626 225.5 626 c 128,-1,17
 263 626 263 626 290 644 c 128,-1,18
 317 662 317 662 320 691 c 1,19,-1
 338 691 l 1,0,1
EndSplineSet
EndChar

StartChar: dotaccent
Encoding: 729 729 202
Width: 235
Flags: W
LayerCount: 2
Fore
SplineSet
163 662 m 1,0,-1
 163 579 l 1,1,-1
 74 579 l 1,2,-1
 74 662 l 1,3,-1
 163 662 l 1,0,-1
EndSplineSet
EndChar

StartChar: ring
Encoding: 730 730 203
Width: 323
Flags: W
LayerCount: 2
Fore
SplineSet
163 556 m 128,-1,1
 126 556 126 556 100 582 c 128,-1,2
 74 608 74 608 74 645.5 c 128,-1,3
 74 683 74 683 100 709 c 128,-1,4
 126 735 126 735 163 735 c 128,-1,5
 200 735 200 735 227 709.5 c 128,-1,6
 254 684 254 684 254 645.5 c 128,-1,7
 254 607 254 607 227 581.5 c 128,-1,0
 200 556 200 556 163 556 c 128,-1,1
133 614 m 128,-1,9
 146 601 146 601 164 601 c 128,-1,10
 182 601 182 601 195 614 c 128,-1,11
 208 627 208 627 208 645.5 c 128,-1,12
 208 664 208 664 195 677 c 128,-1,13
 182 690 182 690 164 690 c 128,-1,14
 146 690 146 690 133 677 c 128,-1,15
 120 664 120 664 120 645.5 c 128,-1,8
 120 627 120 627 133 614 c 128,-1,9
EndSplineSet
EndChar

StartChar: ogonek
Encoding: 731 731 204
Width: 309
Flags: W
LayerCount: 2
Fore
SplineSet
239 -168 m 1,0,1
 194 -193 194 -193 154 -193 c 128,-1,2
 114 -193 114 -193 85.5 -175 c 128,-1,3
 57 -157 57 -157 57 -125.5 c 128,-1,4
 57 -94 57 -94 68.5 -75 c 128,-1,5
 80 -56 80 -56 98 -42 c 1,6,7
 123 -20 123 -20 173 2 c 1,8,-1
 229 2 l 1,9,-1
 202 -13 l 2,10,11
 134 -50 134 -50 134 -90 c 0,12,13
 134 -115 134 -115 152.5 -127 c 128,-1,14
 171 -139 171 -139 197 -139 c 128,-1,15
 223 -139 223 -139 239 -129 c 1,16,-1
 239 -168 l 1,0,1
EndSplineSet
EndChar

StartChar: tilde
Encoding: 732 732 205
Width: 463
Flags: W
LayerCount: 2
Fore
SplineSet
152 609 m 0,0,1
 117 609 117 609 102 570 c 1,2,-1
 71 570 l 1,3,4
 78 636 78 636 126 660 c 0,5,6
 144 668 144 668 168 668 c 0,7,8
 201 668 201 668 229 654 c 128,-1,9
 257 640 257 640 271.5 633.5 c 128,-1,10
 286 627 286 627 305.5 627 c 128,-1,11
 325 627 325 627 336.5 640.5 c 128,-1,12
 348 654 348 654 352 667 c 1,13,-1
 384 667 l 1,14,15
 368 569 368 569 288 569 c 0,16,17
 252 569 252 569 225 582.5 c 128,-1,18
 198 596 198 596 183.5 602.5 c 128,-1,19
 169 609 169 609 152 609 c 0,0,1
EndSplineSet
EndChar

StartChar: hungarumlaut
Encoding: 733 733 206
Width: 523
Flags: W
LayerCount: 2
Fore
SplineSet
147 675 m 1,0,-1
 254 675 l 1,1,-1
 147 570 l 1,2,-1
 86 570 l 1,3,-1
 147 675 l 1,0,-1
303 675 m 1,4,-1
 410 675 l 1,5,-1
 303 570 l 1,6,-1
 242 570 l 1,7,-1
 303 675 l 1,4,-1
EndSplineSet
EndChar

StartChar: Omega
Encoding: 937 937 207
Width: 678
Flags: W
LayerCount: 2
Fore
SplineSet
115 343 m 0,0,1
 115 155 115 155 280 59 c 1,2,-1
 280 0 l 1,3,-1
 54 0 l 1,4,-1
 54 59 l 1,5,-1
 197 59 l 1,6,7
 94 133 94 133 58 258 c 0,8,9
 45 302 45 302 45 359.5 c 128,-1,10
 45 417 45 417 66 474.5 c 128,-1,11
 87 532 87 532 126 576 c 0,12,13
 211 670 211 670 339 670 c 256,14,15
 467 670 467 670 552 576 c 0,16,17
 633 485 633 485 633 353 c 0,18,19
 633 259 633 259 586 176 c 0,20,21
 546 105 546 105 480 59 c 1,22,-1
 624 59 l 1,23,-1
 624 0 l 1,24,-1
 398 0 l 1,25,-1
 398 59 l 1,26,27
 563 155 563 155 563 343 c 0,28,29
 563 445 563 445 504 519 c 0,30,31
 441 599 441 599 339 599 c 0,32,33
 236 599 236 599 172 519 c 1,34,35
 115 446 115 446 115 343 c 0,0,1
EndSplineSet
EndChar

StartChar: pi
Encoding: 960 960 208
Width: 578
Flags: W
LayerCount: 2
Fore
SplineSet
460 119 m 2,0,1
 460 47 460 47 535 47 c 1,2,-1
 535 -7 l 1,3,4
 465 -7 465 -7 430 19 c 0,5,6
 387 51 387 51 387 129 c 2,7,-1
 387 424 l 1,8,-1
 190 424 l 1,9,-1
 190 0 l 1,10,-1
 116 0 l 1,11,-1
 116 424 l 1,12,-1
 19 424 l 1,13,-1
 19 490 l 1,14,-1
 557 490 l 1,15,-1
 557 424 l 1,16,-1
 460 424 l 1,17,-1
 460 119 l 2,0,1
EndSplineSet
EndChar

StartChar: endash
Encoding: 8211 8211 209
Width: 610
Flags: W
LayerCount: 2
Fore
SplineSet
55 329 m 1,0,-1
 555 329 l 1,1,-1
 555 262 l 1,2,-1
 55 262 l 1,3,-1
 55 329 l 1,0,-1
EndSplineSet
EndChar

StartChar: emdash
Encoding: 8212 8212 210
Width: 1146
Flags: W
LayerCount: 2
Fore
SplineSet
73 329 m 1,0,-1
 1073 329 l 1,1,-1
 1073 262 l 1,2,-1
 73 262 l 1,3,-1
 73 329 l 1,0,-1
EndSplineSet
EndChar

StartChar: quoteleft
Encoding: 8216 8216 211
Width: 218
Flags: W
LayerCount: 2
Fore
SplineSet
134 475 m 1,0,-1
 36 475 l 1,1,-1
 124 688 l 1,2,-1
 192 688 l 1,3,-1
 134 475 l 1,0,-1
EndSplineSet
EndChar

StartChar: quoteright
Encoding: 8217 8217 212
Width: 211
Flags: W
LayerCount: 2
Fore
SplineSet
98 688 m 1,0,-1
 196 688 l 1,1,-1
 108 475 l 1,2,-1
 40 475 l 1,3,-1
 98 688 l 1,0,-1
EndSplineSet
EndChar

StartChar: quotesinglbase
Encoding: 8218 8218 213
Width: 220
Flags: W
LayerCount: 2
Fore
SplineSet
69 80 m 1,0,-1
 167 80 l 1,1,-1
 79 -133 l 1,2,-1
 11 -133 l 1,3,-1
 69 80 l 1,0,-1
EndSplineSet
EndChar

StartChar: quotedblleft
Encoding: 8220 8220 214
Width: 368
Flags: W
LayerCount: 2
Fore
SplineSet
134 475 m 1,0,-1
 36 475 l 1,1,-1
 124 688 l 1,2,-1
 192 688 l 1,3,-1
 134 475 l 1,0,-1
284 475 m 1,4,-1
 186 475 l 1,5,-1
 274 688 l 1,6,-1
 342 688 l 1,7,-1
 284 475 l 1,4,-1
EndSplineSet
EndChar

StartChar: quotedblright
Encoding: 8221 8221 215
Width: 361
Flags: W
LayerCount: 2
Fore
SplineSet
248 688 m 1,0,-1
 346 688 l 1,1,-1
 258 475 l 1,2,-1
 190 475 l 1,3,-1
 248 688 l 1,0,-1
98 688 m 1,4,-1
 196 688 l 1,5,-1
 108 475 l 1,6,-1
 40 475 l 1,7,-1
 98 688 l 1,4,-1
EndSplineSet
EndChar

StartChar: quotedblbase
Encoding: 8222 8222 216
Width: 370
Flags: W
LayerCount: 2
Fore
SplineSet
219 80 m 1,0,-1
 317 80 l 1,1,-1
 229 -133 l 1,2,-1
 161 -133 l 1,3,-1
 219 80 l 1,0,-1
69 80 m 1,4,-1
 167 80 l 1,5,-1
 79 -133 l 1,6,-1
 11 -133 l 1,7,-1
 69 80 l 1,4,-1
EndSplineSet
EndChar

StartChar: dagger
Encoding: 8224 8224 217
Width: 435
Flags: W
LayerCount: 2
Fore
SplineSet
397 439 m 1,0,-1
 248 439 l 1,1,-1
 248 -131 l 1,2,-1
 187 -131 l 1,3,-1
 187 439 l 1,4,-1
 38 439 l 1,5,-1
 38 500 l 1,6,-1
 187 500 l 1,7,-1
 187 662 l 1,8,-1
 248 662 l 1,9,-1
 248 500 l 1,10,-1
 397 500 l 1,11,-1
 397 439 l 1,0,-1
EndSplineSet
EndChar

StartChar: daggerdbl
Encoding: 8225 8225 218
Width: 455
Flags: W
LayerCount: 2
Fore
SplineSet
407 31 m 1,0,-1
 258 31 l 1,1,-1
 258 -131 l 1,2,-1
 197 -131 l 1,3,-1
 197 31 l 1,4,-1
 48 31 l 1,5,-1
 48 92 l 1,6,-1
 197 92 l 1,7,-1
 197 439 l 1,8,-1
 48 439 l 1,9,-1
 48 500 l 1,10,-1
 197 500 l 1,11,-1
 197 662 l 1,12,-1
 258 662 l 1,13,-1
 258 500 l 1,14,-1
 407 500 l 1,15,-1
 407 439 l 1,16,-1
 258 439 l 1,17,-1
 258 92 l 1,18,-1
 407 92 l 1,19,-1
 407 31 l 1,0,-1
EndSplineSet
EndChar

StartChar: bullet
Encoding: 8226 8226 219
Width: 340
Flags: W
LayerCount: 2
Fore
SplineSet
36 320 m 256,0,1
 36 376 36 376 75 415 c 128,-1,2
 114 454 114 454 170 454 c 256,3,4
 226 454 226 454 265 415 c 128,-1,5
 304 376 304 376 304 320 c 256,6,7
 304 264 304 264 265 225 c 128,-1,8
 226 186 226 186 170 186 c 256,9,10
 114 186 114 186 75 225 c 128,-1,11
 36 264 36 264 36 320 c 256,0,1
EndSplineSet
EndChar

StartChar: ellipsis
Encoding: 8230 8230 220
Width: 787
Flags: W
LayerCount: 2
Fore
SplineSet
150 102 m 1,0,-1
 150 0 l 1,1,-1
 53 0 l 1,2,-1
 53 102 l 1,3,-1
 150 102 l 1,0,-1
442 102 m 1,4,-1
 442 0 l 1,5,-1
 345 0 l 1,6,-1
 345 102 l 1,7,-1
 442 102 l 1,4,-1
734 102 m 1,8,-1
 734 0 l 1,9,-1
 637 0 l 1,10,-1
 637 102 l 1,11,-1
 734 102 l 1,8,-1
EndSplineSet
EndChar

StartChar: perthousand
Encoding: 8240 8240 221
Width: 1193
Flags: W
LayerCount: 2
Fore
SplineSet
343 470 m 128,-1,1
 343 384 343 384 302.5 336 c 128,-1,2
 262 288 262 288 192.5 288 c 128,-1,3
 123 288 123 288 83 336 c 128,-1,4
 43 384 43 384 43 477.5 c 128,-1,5
 43 571 43 571 83 619 c 128,-1,6
 123 667 123 667 196 666 c 128,-1,7
 269 665 269 665 306 610.5 c 128,-1,0
 343 556 343 556 343 470 c 128,-1,1
193 345 m 1,8,9
 260 348 260 348 276 431 c 0,10,11
 281 454 281 454 281 477 c 0,12,13
 281 543 281 543 257.5 576 c 128,-1,14
 234 609 234 609 192.5 609 c 128,-1,15
 151 609 151 609 127.5 576 c 128,-1,16
 104 543 104 543 104 477 c 256,17,18
 104 411 104 411 127.5 378 c 128,-1,19
 151 345 151 345 193 345 c 1,8,9
804 174 m 128,-1,21
 804 88 804 88 763.5 40 c 128,-1,22
 723 -8 723 -8 653.5 -8 c 128,-1,23
 584 -8 584 -8 544 40 c 128,-1,24
 504 88 504 88 504 181.5 c 128,-1,25
 504 275 504 275 544 323 c 128,-1,26
 584 371 584 371 657 370 c 128,-1,27
 730 369 730 369 767 314.5 c 128,-1,20
 804 260 804 260 804 174 c 128,-1,21
654 49 m 1,28,29
 721 52 721 52 738 135 c 0,30,31
 742 158 742 158 742 181 c 0,32,33
 742 247 742 247 718.5 280 c 128,-1,34
 695 313 695 313 653.5 313 c 128,-1,35
 612 313 612 313 588.5 280 c 128,-1,36
 565 247 565 247 565 181 c 256,37,38
 565 115 565 115 588.5 82 c 128,-1,39
 612 49 612 49 654 49 c 1,28,29
684 670 m 1,40,-1
 225 -12 l 1,41,-1
 162 -12 l 1,42,-1
 621 670 l 1,43,-1
 684 670 l 1,40,-1
1152 174 m 128,-1,45
 1152 88 1152 88 1111.5 40 c 128,-1,46
 1071 -8 1071 -8 1001.5 -8 c 128,-1,47
 932 -8 932 -8 892 40 c 128,-1,48
 852 88 852 88 852 181.5 c 128,-1,49
 852 275 852 275 892 323 c 128,-1,50
 932 371 932 371 1005 370 c 128,-1,51
 1078 369 1078 369 1115 314.5 c 128,-1,44
 1152 260 1152 260 1152 174 c 128,-1,45
1002 49 m 1,52,53
 1069 52 1069 52 1086 135 c 0,54,55
 1090 158 1090 158 1090 181 c 0,56,57
 1090 247 1090 247 1066.5 280 c 128,-1,58
 1043 313 1043 313 1001.5 313 c 128,-1,59
 960 313 960 313 936.5 280 c 128,-1,60
 913 247 913 247 913 181 c 256,61,62
 913 115 913 115 936.5 82 c 128,-1,63
 960 49 960 49 1002 49 c 1,52,53
EndSplineSet
EndChar

StartChar: guilsinglleft
Encoding: 8249 8249 222
Width: 303
Flags: W
LayerCount: 2
Fore
SplineSet
121 259 m 1,0,-1
 258 57 l 1,1,-1
 169 57 l 1,2,-1
 39 259 l 1,3,-1
 169 461 l 1,4,-1
 258 461 l 1,5,-1
 121 259 l 1,0,-1
EndSplineSet
EndChar

StartChar: guilsinglright
Encoding: 8250 8250 223
Width: 303
Flags: W
LayerCount: 2
Fore
SplineSet
45 461 m 1,0,-1
 134 461 l 1,1,-1
 264 259 l 1,2,-1
 134 57 l 1,3,-1
 45 57 l 1,4,-1
 182 259 l 1,5,-1
 45 461 l 1,0,-1
EndSplineSet
EndChar

StartChar: fraction
Encoding: 8260 8260 224
Width: 468
Flags: W
LayerCount: 2
Fore
SplineSet
-8 -14 m 1,0,-1
 412 674 l 1,1,-1
 476 674 l 1,2,-1
 56 -14 l 1,3,-1
 -8 -14 l 1,0,-1
EndSplineSet
EndChar

StartChar: Euro
Encoding: 8364 8364 225
Width: 613
Flags: W
LayerCount: 2
Fore
SplineSet
415 65 m 0,0,1
 493 65 493 65 552 108 c 1,2,-1
 566 36 l 1,3,4
 499 -8 499 -8 404 -8 c 0,5,6
 283 -8 283 -8 212 68 c 0,7,8
 148 137 148 137 131 252 c 1,9,-1
 42 252 l 1,10,-1
 64 306 l 1,11,-1
 126 306 l 1,12,13
 125 313 125 313 125 319 c 128,-1,14
 125 325 125 325 125 339 c 128,-1,15
 125 353 125 353 127 375 c 1,16,-1
 42 375 l 1,17,-1
 64 429 l 1,18,-1
 134 429 l 1,19,20
 168 598 168 598 298 651 c 0,21,22
 344 670 344 670 398 670 c 0,23,24
 490 670 490 670 555 633 c 1,25,-1
 528 565 l 1,26,27
 486 597 486 597 408 597 c 0,28,29
 281 597 281 597 232 495 c 0,30,31
 217 464 217 464 210 429 c 1,32,-1
 474 429 l 1,33,-1
 453 375 l 1,34,-1
 202 375 l 1,35,36
 200 353 200 353 200 339 c 2,37,-1
 200 319 l 2,38,39
 200 313 200 313 201 306 c 1,40,-1
 426 306 l 1,41,-1
 405 252 l 1,42,-1
 206 252 l 1,43,44
 240 65 240 65 415 65 c 0,0,1
EndSplineSet
EndChar

StartChar: trademark
Encoding: 8482 8482 226
Width: 815
Flags: W
LayerCount: 2
Fore
SplineSet
62 615 m 1,0,-1
 62 662 l 1,1,-1
 348 662 l 1,2,-1
 348 615 l 1,3,-1
 229 615 l 1,4,-1
 229 313 l 1,5,-1
 180 313 l 1,6,-1
 180 615 l 1,7,-1
 62 615 l 1,0,-1
689 662 m 1,8,-1
 740 662 l 1,9,-1
 740 313 l 1,10,-1
 691 313 l 1,11,-1
 691 582 l 1,12,-1
 575 433 l 1,13,-1
 457 582 l 1,14,-1
 457 313 l 1,15,-1
 408 313 l 1,16,-1
 408 662 l 1,17,-1
 460 662 l 1,18,-1
 575 509 l 1,19,-1
 689 662 l 1,8,-1
EndSplineSet
EndChar

StartChar: partialdiff
Encoding: 8706 8706 227
Width: 603
Flags: W
LayerCount: 2
Fore
SplineSet
308 658 m 0,0,1
 238 658 238 658 184 604 c 1,2,-1
 143 638 l 1,3,4
 218 720 218 720 327 722 c 0,5,6
 438 724 438 724 497 641 c 0,7,8
 550 566 550 566 550 440 c 0,9,10
 550 342 550 342 520 244 c 0,11,12
 465 69 465 69 338 12 c 0,13,14
 292 -8 292 -8 242.5 -8 c 128,-1,15
 193 -8 193 -8 157.5 5 c 128,-1,16
 122 18 122 18 96 42 c 0,17,18
 41 91 41 91 41 169 c 0,19,20
 41 275 41 275 124 350 c 0,21,22
 203 422 203 422 308 422 c 0,23,24
 369 422 369 422 406 404 c 128,-1,25
 443 386 443 386 472 360 c 1,26,27
 478 390 478 390 478 437 c 128,-1,28
 478 484 478 484 470 526 c 128,-1,29
 462 568 462 568 442 597 c 0,30,31
 401 658 401 658 308 658 c 0,0,1
134 250 m 128,-1,33
 118 219 118 219 118 174 c 128,-1,34
 118 129 118 129 154.5 97 c 128,-1,35
 191 65 191 65 240.5 65 c 128,-1,36
 290 65 290 65 324.5 83.5 c 128,-1,37
 359 102 359 102 386 134 c 0,38,39
 440 198 440 198 459 297 c 1,40,41
 432 320 432 320 395.5 335.5 c 128,-1,42
 359 351 359 351 312.5 351 c 128,-1,43
 266 351 266 351 233.5 338.5 c 128,-1,44
 201 326 201 326 175.5 303.5 c 128,-1,32
 150 281 150 281 134 250 c 128,-1,33
EndSplineSet
EndChar

StartChar: Delta
Encoding: 8710 8710 228
Width: 579
Flags: W
LayerCount: 2
Fore
SplineSet
314 662 m 1,0,-1
 545 0 l 1,1,-1
 34 0 l 1,2,-1
 268 662 l 1,3,-1
 314 662 l 1,0,-1
107 71 m 1,4,-1
 439 71 l 1,5,-1
 278 559 l 1,6,-1
 107 71 l 1,4,-1
EndSplineSet
EndChar

StartChar: product
Encoding: 8719 8719 229
Width: 671
Flags: W
LayerCount: 2
Fore
SplineSet
77 -180 m 1,0,-1
 77 748 l 1,1,-1
 594 748 l 1,2,-1
 594 -180 l 1,3,-1
 521 -180 l 1,4,-1
 521 682 l 1,5,-1
 151 682 l 1,6,-1
 151 -180 l 1,7,-1
 77 -180 l 1,0,-1
EndSplineSet
EndChar

StartChar: summation
Encoding: 8721 8721 230
Width: 653
Flags: W
LayerCount: 2
Fore
SplineSet
606 675 m 1,0,-1
 143 675 l 1,1,-1
 478 284 l 1,2,-1
 143 -107 l 1,3,-1
 606 -107 l 1,4,-1
 606 -180 l 1,5,-1
 42 -180 l 1,6,-1
 42 -113 l 1,7,-1
 375 284 l 1,8,-1
 42 682 l 1,9,-1
 42 748 l 1,10,-1
 606 748 l 1,11,-1
 606 675 l 1,0,-1
EndSplineSet
EndChar

StartChar: minus
Encoding: 8722 8722 231
Width: 550
Flags: W
LayerCount: 2
Fore
SplineSet
500 203 m 1,0,-1
 50 203 l 1,1,-1
 50 268 l 1,2,-1
 500 268 l 1,3,-1
 500 203 l 1,0,-1
EndSplineSet
EndChar

StartChar: radical
Encoding: 8730 8730 232
Width: 672
Flags: W
LayerCount: 2
Fore
SplineSet
397 -163 m 1,0,-1
 310 -163 l 1,1,-1
 142 209 l 1,2,-1
 25 164 l 1,3,-1
 3 220 l 1,4,-1
 191 294 l 1,5,-1
 358 -82 l 1,6,-1
 613 740 l 1,7,-1
 669 723 l 1,8,-1
 397 -163 l 1,0,-1
EndSplineSet
EndChar

StartChar: infinity
Encoding: 8734 8734 233
Width: 751
Flags: W
LayerCount: 2
Fore
SplineSet
198 414 m 0,0,1
 290 414 290 414 376 298 c 1,2,3
 431 378 431 378 502 404 c 0,4,5
 527 414 527 414 560 414 c 128,-1,6
 593 414 593 414 622 399 c 128,-1,7
 651 384 651 384 670 360 c 0,8,9
 705 315 705 315 705 255 c 0,10,11
 705 193 705 193 670 149 c 0,12,13
 627 96 627 96 553 96 c 0,14,15
 481 96 481 96 412 168 c 0,16,17
 392 189 392 189 376 212 c 1,18,19
 290 96 290 96 198 96 c 0,20,21
 124 96 124 96 82 149 c 0,22,23
 46 193 46 193 46 255 c 0,24,25
 46 315 46 315 82 360 c 0,26,27
 124 414 124 414 198 414 c 0,0,1
161 164 m 0,28,29
 179 154 179 154 200.5 154 c 128,-1,30
 222 154 222 154 241.5 162.5 c 128,-1,31
 261 171 261 171 280 185 c 0,32,33
 317 212 317 212 347 255 c 1,34,35
 300 322 300 322 242 348 c 0,36,37
 222 356 222 356 200.5 356 c 128,-1,38
 179 356 179 356 161 346.5 c 128,-1,39
 143 337 143 337 131 322 c 0,40,41
 108 295 108 295 108 255 c 0,42,43
 108 191 108 191 161 164 c 0,28,29
550 154 m 0,44,45
 572 154 572 154 590 163.5 c 128,-1,46
 608 173 608 173 620 188 c 0,47,48
 643 215 643 215 643 255 c 0,49,50
 643 319 643 319 590 346 c 0,51,52
 572 356 572 356 550.5 356 c 128,-1,53
 529 356 529 356 509 347.5 c 128,-1,54
 489 339 489 339 470 325 c 0,55,56
 429 294 429 294 404 255 c 1,57,58
 429 216 429 216 470 185 c 256,59,60
 511 154 511 154 550 154 c 0,44,45
EndSplineSet
EndChar

StartChar: integral
Encoding: 8747 8747 234
Width: 308
Flags: W
LayerCount: 2
Fore
SplineSet
121 637 m 2,0,1
 121 766 121 766 224 778 c 0,2,3
 254 781 254 781 290 781 c 1,4,-1
 290 727 l 1,5,6
 230 727 230 727 208.5 707.5 c 128,-1,7
 187 688 187 688 187 636 c 2,8,-1
 187 -34 l 2,9,10
 187 -163 187 -163 84 -174 c 0,11,12
 54 -178 54 -178 18 -178 c 1,13,-1
 18 -124 l 1,14,15
 78 -124 78 -124 99.5 -104.5 c 128,-1,16
 121 -85 121 -85 121 -33 c 2,17,-1
 121 637 l 2,0,1
EndSplineSet
EndChar

StartChar: notequal
Encoding: 8800 8800 236
Width: 550
Flags: W
LayerCount: 2
Fore
SplineSet
343 301 m 1,0,-1
 274 170 l 1,1,-1
 493 170 l 1,2,-1
 493 103 l 1,3,-1
 238 103 l 1,4,-1
 168 -29 l 1,5,-1
 115 -1 l 1,6,-1
 170 103 l 1,7,-1
 57 103 l 1,8,-1
 57 170 l 1,9,-1
 206 170 l 1,10,-1
 275 301 l 1,11,-1
 57 301 l 1,12,-1
 57 368 l 1,13,-1
 311 368 l 1,14,-1
 381 499 l 1,15,-1
 434 471 l 1,16,-1
 379 368 l 1,17,-1
 493 368 l 1,18,-1
 493 301 l 1,19,-1
 343 301 l 1,0,-1
EndSplineSet
EndChar

StartChar: lessequal
Encoding: 8804 8804 237
Width: 550
Flags: W
LayerCount: 2
Fore
SplineSet
512 434 m 1,0,-1
 117 296 l 1,1,-1
 512 158 l 1,2,-1
 512 80 l 1,3,-1
 31 264 l 1,4,-1
 31 327 l 1,5,-1
 512 512 l 1,6,-1
 512 434 l 1,0,-1
31 32 m 1,7,-1
 512 32 l 1,8,-1
 512 -34 l 1,9,-1
 31 -34 l 1,10,-1
 31 32 l 1,7,-1
EndSplineSet
EndChar

StartChar: greaterequal
Encoding: 8805 8805 238
Width: 550
Flags: W
LayerCount: 2
Fore
SplineSet
37 512 m 1,0,-1
 518 327 l 1,1,-1
 518 264 l 1,2,-1
 37 80 l 1,3,-1
 37 158 l 1,4,-1
 432 296 l 1,5,-1
 37 434 l 1,6,-1
 37 512 l 1,0,-1
518 -34 m 1,7,-1
 37 -34 l 1,8,-1
 37 32 l 1,9,-1
 518 32 l 1,10,-1
 518 -34 l 1,7,-1
EndSplineSet
EndChar

StartChar: lozenge
Encoding: 9674 9674 239
Width: 618
Flags: W
LayerCount: 2
Fore
SplineSet
582 331 m 1,0,-1
 348 -58 l 1,1,-1
 270 -58 l 1,2,-1
 36 331 l 1,3,-1
 270 720 l 1,4,-1
 348 720 l 1,5,-1
 582 331 l 1,0,-1
500 331 m 1,6,-1
 309 648 l 1,7,-1
 118 331 l 1,8,-1
 309 14 l 1,9,-1
 500 331 l 1,6,-1
EndSplineSet
EndChar

StartChar: f_f
Encoding: 64256 64256 240
Width: 604
Flags: W
LayerCount: 2
Fore
SplineSet
577 637 m 2,0,1
 524 637 524 637 497.5 613.5 c 128,-1,2
 471 590 471 590 471 538 c 2,3,-1
 471 500 l 1,4,-1
 587 500 l 1,5,-1
 587 434 l 1,6,-1
 471 434 l 1,7,-1
 471 0 l 1,8,-1
 396 0 l 1,9,-1
 396 434 l 1,10,-1
 174 434 l 1,11,-1
 174 0 l 1,12,-1
 99 0 l 1,13,-1
 99 434 l 1,14,-1
 13 434 l 1,15,-1
 13 500 l 1,16,-1
 99 500 l 1,17,-1
 99 544 l 2,18,19
 99 626 99 626 148 667 c 128,-1,20
 197 708 197 708 284 708 c 2,21,-1
 290 708 l 1,22,-1
 290 637 l 1,23,-1
 280 637 l 2,24,25
 227 637 227 637 200.5 613.5 c 128,-1,26
 174 590 174 590 174 538 c 2,27,-1
 174 500 l 1,28,-1
 396 500 l 1,29,-1
 396 544 l 2,30,31
 396 626 396 626 445 667 c 128,-1,32
 494 708 494 708 581 708 c 2,33,-1
 587 708 l 1,34,-1
 587 637 l 1,35,-1
 577 637 l 2,0,1
EndSplineSet
EndChar

StartChar: fi
Encoding: 64257 64257 241
Width: 496
Flags: W
LayerCount: 2
Fore
SplineSet
356 434 m 1,0,-1
 174 434 l 1,1,-1
 174 0 l 1,2,-1
 99 0 l 1,3,-1
 99 434 l 1,4,-1
 13 434 l 1,5,-1
 13 500 l 1,6,-1
 99 500 l 1,7,-1
 99 544 l 2,8,9
 99 626 99 626 148 667 c 128,-1,10
 197 708 197 708 284 708 c 2,11,-1
 290 708 l 1,12,-1
 290 637 l 1,13,-1
 280 637 l 2,14,15
 227 637 227 637 200.5 613.5 c 128,-1,16
 174 590 174 590 174 538 c 2,17,-1
 174 500 l 1,18,-1
 431 500 l 1,19,-1
 431 0 l 1,20,-1
 356 0 l 1,21,-1
 356 434 l 1,0,-1
434 682 m 1,22,-1
 434 584 l 1,23,-1
 353 584 l 1,24,-1
 353 682 l 1,25,-1
 434 682 l 1,22,-1
EndSplineSet
EndChar

StartChar: f_f_i
Encoding: 64259 64259 243
Width: 793
Flags: W
LayerCount: 2
Fore
SplineSet
653 434 m 1,0,-1
 471 434 l 1,1,-1
 471 0 l 1,2,-1
 396 0 l 1,3,-1
 396 434 l 1,4,-1
 174 434 l 1,5,-1
 174 0 l 1,6,-1
 99 0 l 1,7,-1
 99 434 l 1,8,-1
 13 434 l 1,9,-1
 13 500 l 1,10,-1
 99 500 l 1,11,-1
 99 544 l 2,12,13
 99 626 99 626 148 667 c 128,-1,14
 197 708 197 708 284 708 c 2,15,-1
 290 708 l 1,16,-1
 290 637 l 1,17,-1
 280 637 l 2,18,19
 227 637 227 637 200.5 613.5 c 128,-1,20
 174 590 174 590 174 538 c 2,21,-1
 174 500 l 1,22,-1
 396 500 l 1,23,-1
 396 544 l 2,24,25
 396 626 396 626 445 667 c 128,-1,26
 494 708 494 708 581 708 c 2,27,-1
 587 708 l 1,28,-1
 587 637 l 1,29,-1
 577 637 l 2,30,31
 524 637 524 637 497.5 613.5 c 128,-1,32
 471 590 471 590 471 538 c 2,33,-1
 471 500 l 1,34,-1
 728 500 l 1,35,-1
 728 0 l 1,36,-1
 653 0 l 1,37,-1
 653 434 l 1,0,-1
731 682 m 1,38,-1
 731 584 l 1,39,-1
 650 584 l 1,40,-1
 650 682 l 1,41,-1
 731 682 l 1,38,-1
EndSplineSet
EndChar

StartChar: f_f_l
Encoding: 64260 64260 244
Width: 793
Flags: W
LayerCount: 2
Fore
SplineSet
577 637 m 2,0,1
 524 637 524 637 497.5 613.5 c 128,-1,2
 471 590 471 590 471 538 c 2,3,-1
 471 500 l 1,4,-1
 587 500 l 1,5,-1
 587 434 l 1,6,-1
 471 434 l 1,7,-1
 471 0 l 1,8,-1
 396 0 l 1,9,-1
 396 434 l 1,10,-1
 174 434 l 1,11,-1
 174 0 l 1,12,-1
 99 0 l 1,13,-1
 99 434 l 1,14,-1
 13 434 l 1,15,-1
 13 500 l 1,16,-1
 99 500 l 1,17,-1
 99 544 l 2,18,19
 99 626 99 626 148 667 c 128,-1,20
 197 708 197 708 284 708 c 2,21,-1
 290 708 l 1,22,-1
 290 637 l 1,23,-1
 280 637 l 2,24,25
 227 637 227 637 200.5 613.5 c 128,-1,26
 174 590 174 590 174 538 c 2,27,-1
 174 500 l 1,28,-1
 396 500 l 1,29,-1
 396 544 l 2,30,31
 396 626 396 626 445 667 c 128,-1,32
 494 708 494 708 581 708 c 2,33,-1
 587 708 l 1,34,-1
 587 637 l 1,35,-1
 577 637 l 2,0,1
728 0 m 1,36,-1
 653 0 l 1,37,-1
 653 700 l 1,38,-1
 728 700 l 1,39,-1
 728 0 l 1,36,-1
EndSplineSet
EndChar

StartChar: f_j
Encoding: 65540 -1 246
Width: 497
Flags: W
LayerCount: 2
Fore
SplineSet
357 434 m 1,0,-1
 174 434 l 1,1,-1
 174 0 l 1,2,-1
 99 0 l 1,3,-1
 99 434 l 1,4,-1
 13 434 l 1,5,-1
 13 500 l 1,6,-1
 99 500 l 1,7,-1
 99 544 l 2,8,9
 99 626 99 626 148 667 c 128,-1,10
 197 708 197 708 284 708 c 2,11,-1
 290 708 l 1,12,-1
 290 637 l 1,13,-1
 280 637 l 2,14,15
 227 637 227 637 200.5 613.5 c 128,-1,16
 174 590 174 590 174 538 c 2,17,-1
 174 500 l 1,18,-1
 432 500 l 1,19,-1
 432 -198 l 1,20,-1
 357 -198 l 1,21,-1
 357 434 l 1,0,-1
435 682 m 1,22,-1
 435 584 l 1,23,-1
 354 584 l 1,24,-1
 354 682 l 1,25,-1
 435 682 l 1,22,-1
EndSplineSet
EndChar
